M48
; DRILL file {KiCad 7.0.1} date Thu Apr  6 02:47:11 2023
; FORMAT={-:-/ absolute / inch / decimal}
; #@! TF.CreationDate,2023-04-06T02:47:11+01:00
; #@! TF.GenerationSoftware,Kicad,Pcbnew,7.0.1
; #@! TF.FileFunction,Plated,1,2,PTH
FMAT,2
INCH
; #@! TA.AperFunction,Plated,PTH,ViaDrill
T1C0.0118
; #@! TA.AperFunction,Plated,PTH,ComponentDrill
T2C0.0157
; #@! TA.AperFunction,Plated,PTH,ViaDrill
T3C0.0197
; #@! TA.AperFunction,Plated,PTH,ComponentDrill
T4C0.0236
; #@! TA.AperFunction,Plated,PTH,ComponentDrill
T5C0.1260
%
G90
G05
T1
X0.811Y-0.626
X0.8543Y-0.626
X0.8848Y-0.7283
X0.9321Y-0.7283
X1.1331Y-0.5992
X1.2689Y-0.6562
X1.3871Y-0.5775
X1.4126Y-0.5531
X1.5492Y-0.7205
X1.6673Y-0.7205
X1.7953Y-0.8354
X1.7953Y-0.8629
T2
X0.8378Y-0.798
X0.8693Y-0.798
X0.8693Y-0.8255
X0.8693Y-0.8531
X0.9481Y-0.798
X0.9481Y-0.8255
X0.9481Y-0.8531
X0.9776Y-0.798
X1.0445Y-0.798
X1.076Y-0.798
X1.076Y-0.8255
X1.076Y-0.8531
X1.2493Y-0.798
X1.2493Y-0.8255
X1.2493Y-0.8531
X1.2788Y-0.798
T3
X0.9874Y-0.6503
X1.0878Y-0.611
X1.2323Y-0.7579
X1.3022Y-0.7037
X1.4833Y-0.8484
X1.6772Y-0.8484
T5
X1.9685Y-0.7087
T4
G00X1.448Y-0.5945
M15
G01X1.448Y-0.5709
M16
G05
G00X1.448Y-0.7689
M15
G01X1.448Y-0.7256
M16
G05
G00X1.7882Y-0.5945
M15
G01X1.7882Y-0.5709
M16
G05
G00X1.7882Y-0.7689
M15
G01X1.7882Y-0.7256
M16
G05
T0
M30
