%TF.GenerationSoftware,KiCad,Pcbnew,7.0.1*%
%TF.CreationDate,2023-04-06T02:47:11+01:00*%
%TF.ProjectId,Casaba,43617361-6261-42e6-9b69-6361645f7063,rev?*%
%TF.SameCoordinates,Original*%
%TF.FileFunction,Soldermask,Top*%
%TF.FilePolarity,Negative*%
%FSLAX46Y46*%
G04 Gerber Fmt 4.6, Leading zero omitted, Abs format (unit mm)*
G04 Created by KiCad (PCBNEW 7.0.1) date 2023-04-06 02:47:11*
%MOMM*%
%LPD*%
G01*
G04 APERTURE LIST*
G04 Aperture macros list*
%AMRoundRect*
0 Rectangle with rounded corners*
0 $1 Rounding radius*
0 $2 $3 $4 $5 $6 $7 $8 $9 X,Y pos of 4 corners*
0 Add a 4 corners polygon primitive as box body*
4,1,4,$2,$3,$4,$5,$6,$7,$8,$9,$2,$3,0*
0 Add four circle primitives for the rounded corners*
1,1,$1+$1,$2,$3*
1,1,$1+$1,$4,$5*
1,1,$1+$1,$6,$7*
1,1,$1+$1,$8,$9*
0 Add four rect primitives between the rounded corners*
20,1,$1+$1,$2,$3,$4,$5,0*
20,1,$1+$1,$4,$5,$6,$7,0*
20,1,$1+$1,$6,$7,$8,$9,0*
20,1,$1+$1,$8,$9,$2,$3,0*%
G04 Aperture macros list end*
%ADD10C,1.152000*%
%ADD11RoundRect,0.225000X0.225000X0.250000X-0.225000X0.250000X-0.225000X-0.250000X0.225000X-0.250000X0*%
%ADD12C,6.400000*%
%ADD13R,0.550000X0.300000*%
%ADD14RoundRect,0.135000X0.185000X-0.135000X0.185000X0.135000X-0.185000X0.135000X-0.185000X-0.135000X0*%
%ADD15RoundRect,0.140000X-0.170000X0.140000X-0.170000X-0.140000X0.170000X-0.140000X0.170000X0.140000X0*%
%ADD16RoundRect,0.218750X-0.381250X0.218750X-0.381250X-0.218750X0.381250X-0.218750X0.381250X0.218750X0*%
%ADD17RoundRect,0.243750X0.243750X0.456250X-0.243750X0.456250X-0.243750X-0.456250X0.243750X-0.456250X0*%
%ADD18RoundRect,0.150000X0.150000X0.200000X-0.150000X0.200000X-0.150000X-0.200000X0.150000X-0.200000X0*%
%ADD19RoundRect,0.100000X-0.250000X-0.400000X0.250000X-0.400000X0.250000X0.400000X-0.250000X0.400000X0*%
%ADD20RoundRect,0.125000X-0.250000X-0.475000X0.250000X-0.475000X0.250000X0.475000X-0.250000X0.475000X0*%
%ADD21C,0.650000*%
%ADD22R,0.600000X1.450000*%
%ADD23R,0.300000X1.450000*%
%ADD24O,1.000000X2.100000*%
%ADD25O,1.000000X1.600000*%
G04 APERTURE END LIST*
D10*
%TO.C,H5*%
X47400000Y-14600000D03*
%TD*%
%TO.C,H4*%
X47400000Y-21400000D03*
%TD*%
D11*
%TO.C,C2*%
X26506202Y-15518468D03*
X24956202Y-15518468D03*
%TD*%
D12*
%TO.C,H1*%
X50000000Y-18000000D03*
%TD*%
%TO.C,H2*%
X17000000Y-18000000D03*
%TD*%
D13*
%TO.C,U1*%
X32846202Y-14018468D03*
X32846202Y-14518468D03*
X32846202Y-15018468D03*
X32846202Y-15518468D03*
X32846202Y-16018468D03*
X33616202Y-16018468D03*
X33616202Y-15518468D03*
X33616202Y-15018468D03*
X33616202Y-14518468D03*
X33616202Y-14018468D03*
%TD*%
D14*
%TO.C,R1*%
X20600000Y-15310000D03*
X20600000Y-14290000D03*
%TD*%
%TO.C,R2*%
X21700000Y-15310000D03*
X21700000Y-14290000D03*
%TD*%
D15*
%TO.C,C1*%
X35575000Y-18620000D03*
X35575000Y-19580000D03*
%TD*%
D16*
%TO.C,FB1*%
X34200000Y-17637500D03*
X34200000Y-19762500D03*
%TD*%
D17*
%TO.C,F1*%
X36037500Y-21525000D03*
X34162500Y-21525000D03*
%TD*%
D18*
%TO.C,D1*%
X43500000Y-21500000D03*
X44900000Y-21500000D03*
%TD*%
D19*
%TO.C,J3*%
X21331202Y-21468468D03*
D20*
X22481202Y-17468468D03*
X23681202Y-17468468D03*
D19*
X24831202Y-21468468D03*
%TD*%
D21*
%TO.C,J1*%
X43990000Y-18450000D03*
X38210000Y-18450000D03*
D22*
X44325000Y-19895000D03*
X43550000Y-19895000D03*
D23*
X42350000Y-19895000D03*
X41350000Y-19895000D03*
X40850000Y-19895000D03*
X39850000Y-19895000D03*
D22*
X38650000Y-19895000D03*
X37875000Y-19895000D03*
D23*
X39350000Y-19895000D03*
X40350000Y-19895000D03*
X41850000Y-19895000D03*
X42850000Y-19895000D03*
D24*
X45420000Y-18980000D03*
D25*
X45420000Y-14800000D03*
D24*
X36780000Y-18980000D03*
D25*
X36780000Y-14800000D03*
%TD*%
D19*
%TO.C,J2*%
X26581202Y-21468468D03*
D20*
X27731202Y-17468468D03*
X28931202Y-17468468D03*
X30131202Y-17468468D03*
X31331202Y-17468468D03*
D19*
X32481202Y-21468468D03*
%TD*%
D10*
%TO.C,H3*%
X19600000Y-21400000D03*
%TD*%
M02*
