%TF.GenerationSoftware,KiCad,Pcbnew,7.0.1*%
%TF.CreationDate,2023-04-06T02:47:11+01:00*%
%TF.ProjectId,Casaba,43617361-6261-42e6-9b69-6361645f7063,rev?*%
%TF.SameCoordinates,Original*%
%TF.FileFunction,Copper,L1,Top*%
%TF.FilePolarity,Positive*%
%FSLAX46Y46*%
G04 Gerber Fmt 4.6, Leading zero omitted, Abs format (unit mm)*
G04 Created by KiCad (PCBNEW 7.0.1) date 2023-04-06 02:47:11*
%MOMM*%
%LPD*%
G01*
G04 APERTURE LIST*
G04 Aperture macros list*
%AMRoundRect*
0 Rectangle with rounded corners*
0 $1 Rounding radius*
0 $2 $3 $4 $5 $6 $7 $8 $9 X,Y pos of 4 corners*
0 Add a 4 corners polygon primitive as box body*
4,1,4,$2,$3,$4,$5,$6,$7,$8,$9,$2,$3,0*
0 Add four circle primitives for the rounded corners*
1,1,$1+$1,$2,$3*
1,1,$1+$1,$4,$5*
1,1,$1+$1,$6,$7*
1,1,$1+$1,$8,$9*
0 Add four rect primitives between the rounded corners*
20,1,$1+$1,$2,$3,$4,$5,0*
20,1,$1+$1,$4,$5,$6,$7,0*
20,1,$1+$1,$6,$7,$8,$9,0*
20,1,$1+$1,$8,$9,$2,$3,0*%
G04 Aperture macros list end*
%TA.AperFunction,SMDPad,CuDef*%
%ADD10RoundRect,0.225000X0.225000X0.250000X-0.225000X0.250000X-0.225000X-0.250000X0.225000X-0.250000X0*%
%TD*%
%TA.AperFunction,ComponentPad*%
%ADD11C,6.400000*%
%TD*%
%TA.AperFunction,SMDPad,CuDef*%
%ADD12R,0.550000X0.300000*%
%TD*%
%TA.AperFunction,SMDPad,CuDef*%
%ADD13RoundRect,0.135000X0.185000X-0.135000X0.185000X0.135000X-0.185000X0.135000X-0.185000X-0.135000X0*%
%TD*%
%TA.AperFunction,SMDPad,CuDef*%
%ADD14RoundRect,0.140000X-0.170000X0.140000X-0.170000X-0.140000X0.170000X-0.140000X0.170000X0.140000X0*%
%TD*%
%TA.AperFunction,SMDPad,CuDef*%
%ADD15RoundRect,0.218750X-0.381250X0.218750X-0.381250X-0.218750X0.381250X-0.218750X0.381250X0.218750X0*%
%TD*%
%TA.AperFunction,SMDPad,CuDef*%
%ADD16RoundRect,0.243750X0.243750X0.456250X-0.243750X0.456250X-0.243750X-0.456250X0.243750X-0.456250X0*%
%TD*%
%TA.AperFunction,SMDPad,CuDef*%
%ADD17RoundRect,0.150000X0.150000X0.200000X-0.150000X0.200000X-0.150000X-0.200000X0.150000X-0.200000X0*%
%TD*%
%TA.AperFunction,SMDPad,CuDef*%
%ADD18RoundRect,0.166667X-0.333333X-0.733333X0.333333X-0.733333X0.333333X0.733333X-0.333333X0.733333X0*%
%TD*%
%TA.AperFunction,ComponentPad*%
%ADD19C,0.600000*%
%TD*%
%TA.AperFunction,SMDPad,CuDef*%
%ADD20RoundRect,0.100000X-0.625000X-0.900000X0.625000X-0.900000X0.625000X0.900000X-0.625000X0.900000X0*%
%TD*%
%TA.AperFunction,SMDPad,CuDef*%
%ADD21R,0.600000X1.450000*%
%TD*%
%TA.AperFunction,SMDPad,CuDef*%
%ADD22R,0.300000X1.450000*%
%TD*%
%TA.AperFunction,ComponentPad*%
%ADD23O,1.000000X2.100000*%
%TD*%
%TA.AperFunction,ComponentPad*%
%ADD24O,1.000000X1.600000*%
%TD*%
%TA.AperFunction,ViaPad*%
%ADD25C,0.600000*%
%TD*%
%TA.AperFunction,ViaPad*%
%ADD26C,1.000000*%
%TD*%
%TA.AperFunction,Conductor*%
%ADD27C,0.300000*%
%TD*%
G04 APERTURE END LIST*
D10*
%TO.P,C2,1*%
%TO.N,+5V*%
X26506202Y-15518468D03*
%TO.P,C2,2*%
%TO.N,GND*%
X24956202Y-15518468D03*
%TD*%
D11*
%TO.P,H1,1,1*%
%TO.N,GND*%
X50000000Y-18000000D03*
%TD*%
D12*
%TO.P,U1,1,IO1*%
%TO.N,/CC1*%
X32846202Y-14018468D03*
%TO.P,U1,2,IO2*%
%TO.N,/CC2*%
X32846202Y-14518468D03*
%TO.P,U1,3,GND*%
%TO.N,GND*%
X32846202Y-15018468D03*
%TO.P,U1,4,IO3*%
%TO.N,/D-*%
X32846202Y-15518468D03*
%TO.P,U1,5,IO4*%
%TO.N,/D+*%
X32846202Y-16018468D03*
%TO.P,U1,6,NC*%
X33616202Y-16018468D03*
%TO.P,U1,7,NC*%
%TO.N,/D-*%
X33616202Y-15518468D03*
%TO.P,U1,8,GND*%
%TO.N,GND*%
X33616202Y-15018468D03*
%TO.P,U1,9,NC*%
%TO.N,/CC2*%
X33616202Y-14518468D03*
%TO.P,U1,10,NC*%
%TO.N,/CC1*%
X33616202Y-14018468D03*
%TD*%
D13*
%TO.P,R1,1*%
%TO.N,Net-(JP1-B)*%
X20600000Y-15310000D03*
%TO.P,R1,2*%
%TO.N,GND*%
X20600000Y-14290000D03*
%TD*%
%TO.P,R2,1*%
%TO.N,Net-(JP2-B)*%
X21700000Y-15310000D03*
%TO.P,R2,2*%
%TO.N,GND*%
X21700000Y-14290000D03*
%TD*%
D14*
%TO.P,C1,1*%
%TO.N,GND*%
X35575000Y-18620000D03*
%TO.P,C1,2*%
%TO.N,Net-(C1-Pad2)*%
X35575000Y-19580000D03*
%TD*%
D15*
%TO.P,FB1,1*%
%TO.N,+5V*%
X34200000Y-17637500D03*
%TO.P,FB1,2*%
%TO.N,Net-(C1-Pad2)*%
X34200000Y-19762500D03*
%TD*%
D16*
%TO.P,F1,1*%
%TO.N,VBUS*%
X36037500Y-21525000D03*
%TO.P,F1,2*%
%TO.N,Net-(C1-Pad2)*%
X34162500Y-21525000D03*
%TD*%
D17*
%TO.P,D1,1,K*%
%TO.N,VBUS*%
X43500000Y-21500000D03*
%TO.P,D1,2,A*%
%TO.N,GND*%
X44900000Y-21500000D03*
%TD*%
D18*
%TO.P,J3,1,Pin_1*%
%TO.N,/CC1*%
X22481202Y-17268468D03*
%TO.P,J3,2,Pin_2*%
%TO.N,/CC2*%
X23681202Y-17268468D03*
D19*
%TO.P,J3,MP,MountPin*%
%TO.N,GND*%
X21281202Y-20268468D03*
D20*
X21706202Y-20968468D03*
D19*
X22081202Y-20268468D03*
X22081202Y-20968468D03*
X22081202Y-21668468D03*
X24081202Y-20268468D03*
X24081202Y-20968468D03*
X24081202Y-21668468D03*
D20*
X24456202Y-20968468D03*
D19*
X24831202Y-20268468D03*
%TD*%
D21*
%TO.P,J1,A1,GND*%
%TO.N,GND*%
X44325000Y-19895000D03*
%TO.P,J1,A4,VBUS*%
%TO.N,VBUS*%
X43550000Y-19895000D03*
D22*
%TO.P,J1,A5,CC1*%
%TO.N,/CC1*%
X42350000Y-19895000D03*
%TO.P,J1,A6,D+*%
%TO.N,/D+*%
X41350000Y-19895000D03*
%TO.P,J1,A7,D-*%
%TO.N,/D-*%
X40850000Y-19895000D03*
%TO.P,J1,A8,SBU1*%
%TO.N,unconnected-(J1-SBU1-PadA8)*%
X39850000Y-19895000D03*
D21*
%TO.P,J1,A9,VBUS*%
%TO.N,VBUS*%
X38650000Y-19895000D03*
%TO.P,J1,A12,GND*%
%TO.N,GND*%
X37875000Y-19895000D03*
D22*
%TO.P,J1,B5,CC2*%
%TO.N,/CC2*%
X39350000Y-19895000D03*
%TO.P,J1,B6,D+*%
%TO.N,/D+*%
X40350000Y-19895000D03*
%TO.P,J1,B7,D-*%
%TO.N,/D-*%
X41850000Y-19895000D03*
%TO.P,J1,B8,SBU2*%
%TO.N,unconnected-(J1-SBU2-PadB8)*%
X42850000Y-19895000D03*
D23*
%TO.P,J1,S1,SHIELD*%
%TO.N,GND*%
X45420000Y-18980000D03*
D24*
X45420000Y-14800000D03*
D23*
X36780000Y-18980000D03*
D24*
X36780000Y-14800000D03*
%TD*%
D18*
%TO.P,J2,1,Pin_1*%
%TO.N,+5V*%
X27731202Y-17268468D03*
%TO.P,J2,2,Pin_2*%
%TO.N,/D-*%
X28931202Y-17268468D03*
%TO.P,J2,3,Pin_3*%
%TO.N,/D+*%
X30131202Y-17268468D03*
%TO.P,J2,4,Pin_4*%
%TO.N,GND*%
X31331202Y-17268468D03*
D19*
%TO.P,J2,MP,MountPin*%
X26531202Y-20268468D03*
D20*
X26956202Y-20968468D03*
D19*
X27331202Y-20268468D03*
X27331202Y-20968468D03*
X27331202Y-21668468D03*
X31731202Y-20268468D03*
X31731202Y-20968468D03*
X31731202Y-21668468D03*
D20*
X32106202Y-20968468D03*
D19*
X32481202Y-20268468D03*
%TD*%
D25*
%TO.N,GND*%
X45600000Y-21218468D03*
D26*
X31300000Y-19250000D03*
X25081202Y-16518468D03*
D25*
X28781202Y-15218468D03*
X32231202Y-16668468D03*
X45600000Y-21918468D03*
D26*
%TO.N,VBUS*%
X42600000Y-21550000D03*
X37675000Y-21550000D03*
D25*
%TO.N,/CC1*%
X35881202Y-14049500D03*
X42350001Y-18300000D03*
X22475000Y-18500000D03*
%TO.N,/CC2*%
X23675000Y-18500000D03*
X35231202Y-14668468D03*
X39350000Y-18300000D03*
D26*
%TO.N,+5V*%
X27631202Y-15518468D03*
X33075000Y-17875000D03*
D25*
%TO.N,Net-(JP1-B)*%
X20600000Y-15900000D03*
%TO.N,Net-(JP2-B)*%
X21700000Y-15900000D03*
%TD*%
D27*
%TO.N,/CC1*%
X22481202Y-17268468D02*
X22481202Y-18493798D01*
X22481202Y-15668468D02*
X22481202Y-17268468D01*
X33616202Y-14018468D02*
X32846202Y-14018468D01*
X35850170Y-14018468D02*
X35881202Y-14049500D01*
X32846202Y-14018468D02*
X24131202Y-14018468D01*
X42350000Y-18300001D02*
X42350001Y-18300000D01*
X42350000Y-19895000D02*
X42350000Y-18300001D01*
X24131202Y-14018468D02*
X22481202Y-15668468D01*
X22481202Y-18493798D02*
X22475000Y-18500000D01*
X33616202Y-14018468D02*
X35850170Y-14018468D01*
%TO.N,/D+*%
X39024096Y-16918468D02*
X34881202Y-16918468D01*
X34881202Y-16918468D02*
X33981202Y-16018468D01*
X33981202Y-16018468D02*
X30281202Y-16018468D01*
X41350000Y-19895000D02*
X41350000Y-20799670D01*
X30131202Y-16168468D02*
X30131202Y-17168468D01*
X40350000Y-19895000D02*
X40350000Y-18244372D01*
X41131202Y-21018468D02*
X40581202Y-21018468D01*
X40350000Y-18244372D02*
X39024096Y-16918468D01*
X40581202Y-21018468D02*
X40350000Y-20787266D01*
X41350000Y-20799670D02*
X41131202Y-21018468D01*
X30281202Y-16018468D02*
X30131202Y-16168468D01*
X40350000Y-20787266D02*
X40350000Y-19895000D01*
%TO.N,/D-*%
X32846202Y-15518468D02*
X29431202Y-15518468D01*
X40850000Y-18768468D02*
X40850000Y-18037266D01*
X40850000Y-19895000D02*
X40850000Y-18768468D01*
X41850000Y-18987266D02*
X41631202Y-18768468D01*
X41850000Y-19895000D02*
X41850000Y-18987266D01*
X34453388Y-15518468D02*
X33616202Y-15518468D01*
X39231202Y-16418468D02*
X35353388Y-16418468D01*
X29431202Y-15518468D02*
X28931202Y-16018468D01*
X40850000Y-18037266D02*
X39231202Y-16418468D01*
X41631202Y-18768468D02*
X40850000Y-18768468D01*
X28931202Y-16018468D02*
X28931202Y-17268468D01*
X35353388Y-16418468D02*
X34453388Y-15518468D01*
X33616202Y-15518468D02*
X32846202Y-15518468D01*
%TO.N,/CC2*%
X39350000Y-19895000D02*
X39350000Y-18300000D01*
X34881202Y-14518468D02*
X35081202Y-14518468D01*
X24338308Y-14518468D02*
X23681202Y-15175574D01*
X32846202Y-14518468D02*
X24338308Y-14518468D01*
X23681202Y-15175574D02*
X23681202Y-17268468D01*
X23681202Y-18493798D02*
X23675000Y-18500000D01*
X35081202Y-14518468D02*
X35231202Y-14668468D01*
X33616202Y-14518468D02*
X32846202Y-14518468D01*
X33616202Y-14518468D02*
X34881202Y-14518468D01*
X23681202Y-17268468D02*
X23681202Y-18493798D01*
%TO.N,Net-(JP1-B)*%
X20600000Y-15310000D02*
X20600000Y-15900000D01*
%TO.N,Net-(JP2-B)*%
X21700000Y-15310000D02*
X21700000Y-15900000D01*
%TD*%
%TA.AperFunction,Conductor*%
%TO.N,VBUS*%
G36*
X38113000Y-20841613D02*
G01*
X38158387Y-20887000D01*
X38175000Y-20949000D01*
X38175000Y-22125500D01*
X38158387Y-22187500D01*
X38113000Y-22232887D01*
X38051000Y-22249500D01*
X35349000Y-22249500D01*
X35287000Y-22232887D01*
X35241613Y-22187500D01*
X35225000Y-22125500D01*
X35225000Y-20949000D01*
X35241613Y-20887000D01*
X35287000Y-20841613D01*
X35349000Y-20825000D01*
X38051000Y-20825000D01*
X38113000Y-20841613D01*
G37*
%TD.AperFunction*%
%TD*%
%TA.AperFunction,Conductor*%
%TO.N,+5V*%
G36*
X28181702Y-15031731D02*
G01*
X28217939Y-15067968D01*
X28231202Y-15117468D01*
X28231202Y-16489682D01*
X28230702Y-16496583D01*
X28230702Y-18040353D01*
X28231202Y-18047254D01*
X28231202Y-18069468D01*
X28217939Y-18118968D01*
X28181702Y-18155205D01*
X28132202Y-18168468D01*
X26130202Y-18168468D01*
X26080702Y-18155205D01*
X26044465Y-18118968D01*
X26031202Y-18069468D01*
X26031202Y-15117468D01*
X26044465Y-15067968D01*
X26080702Y-15031731D01*
X26130202Y-15018468D01*
X28132202Y-15018468D01*
X28181702Y-15031731D01*
G37*
%TD.AperFunction*%
%TD*%
%TA.AperFunction,Conductor*%
%TO.N,VBUS*%
G36*
X38875500Y-19181731D02*
G01*
X38911737Y-19217968D01*
X38925000Y-19267468D01*
X38925000Y-20825000D01*
X38925001Y-20825000D01*
X39916508Y-20825000D01*
X39968940Y-20840024D01*
X40005457Y-20880537D01*
X40006359Y-20882383D01*
X40011315Y-20897856D01*
X40037322Y-20945912D01*
X40039195Y-20949551D01*
X40063198Y-20998651D01*
X40065568Y-21001830D01*
X40105764Y-21038833D01*
X40108717Y-21041665D01*
X40300400Y-21233348D01*
X40313272Y-21249200D01*
X40319765Y-21259137D01*
X40339002Y-21274109D01*
X40343891Y-21277915D01*
X40353082Y-21286031D01*
X40353890Y-21286839D01*
X40353893Y-21286841D01*
X40353895Y-21286843D01*
X40369970Y-21298320D01*
X40373240Y-21300758D01*
X40382116Y-21307666D01*
X40411031Y-21330172D01*
X40416388Y-21334341D01*
X40419899Y-21336148D01*
X40425134Y-21337706D01*
X40425136Y-21337708D01*
X40472269Y-21351740D01*
X40476165Y-21352988D01*
X40491826Y-21358364D01*
X40522714Y-21368968D01*
X40522716Y-21368968D01*
X40527875Y-21370739D01*
X40531793Y-21371310D01*
X40537246Y-21371084D01*
X40537248Y-21371085D01*
X40586378Y-21369052D01*
X40590469Y-21368968D01*
X41084583Y-21368968D01*
X41104899Y-21371075D01*
X41116517Y-21373511D01*
X41144595Y-21370010D01*
X41146865Y-21369728D01*
X41159110Y-21368968D01*
X41160244Y-21368968D01*
X41179723Y-21365717D01*
X41183747Y-21365129D01*
X41232595Y-21359041D01*
X41232595Y-21359040D01*
X41238024Y-21358364D01*
X41241774Y-21357162D01*
X41246581Y-21354560D01*
X41246583Y-21354560D01*
X41289857Y-21331139D01*
X41293461Y-21329284D01*
X41337686Y-21307666D01*
X41337687Y-21307664D01*
X41342600Y-21305263D01*
X41345752Y-21302912D01*
X41349456Y-21298888D01*
X41349460Y-21298886D01*
X41382804Y-21262663D01*
X41385566Y-21259784D01*
X41564884Y-21080466D01*
X41580734Y-21067596D01*
X41590669Y-21061107D01*
X41609450Y-21036975D01*
X41617570Y-21027781D01*
X41618375Y-21026977D01*
X41629858Y-21010892D01*
X41632288Y-21007632D01*
X41662517Y-20968796D01*
X41662517Y-20968795D01*
X41665876Y-20964480D01*
X41667678Y-20960979D01*
X41669238Y-20955738D01*
X41669240Y-20955736D01*
X41683282Y-20908566D01*
X41684521Y-20904701D01*
X41688933Y-20891851D01*
X41725043Y-20843428D01*
X41782568Y-20825000D01*
X43274999Y-20825000D01*
X43275000Y-20825000D01*
X43275000Y-19267468D01*
X43288263Y-19217968D01*
X43324500Y-19181731D01*
X43374000Y-19168468D01*
X43725500Y-19168468D01*
X43775000Y-19181731D01*
X43811237Y-19217968D01*
X43824500Y-19267468D01*
X43824500Y-20646934D01*
X43825000Y-20652011D01*
X43825000Y-22150500D01*
X43811737Y-22200000D01*
X43775500Y-22236237D01*
X43726000Y-22249500D01*
X38474000Y-22249500D01*
X38424500Y-22236237D01*
X38388263Y-22200000D01*
X38375000Y-22150500D01*
X38375000Y-20652011D01*
X38375500Y-20646934D01*
X38375500Y-19267468D01*
X38388763Y-19217968D01*
X38425000Y-19181731D01*
X38474500Y-19168468D01*
X38826000Y-19168468D01*
X38875500Y-19181731D01*
G37*
%TD.AperFunction*%
%TD*%
%TA.AperFunction,Conductor*%
%TO.N,+5V*%
G36*
X34670424Y-17205364D02*
G01*
X34699085Y-17220874D01*
X34716384Y-17234338D01*
X34719901Y-17236148D01*
X34725135Y-17237706D01*
X34725136Y-17237707D01*
X34731486Y-17239597D01*
X34735451Y-17240778D01*
X34772221Y-17261006D01*
X34797307Y-17294649D01*
X34806202Y-17335662D01*
X34806202Y-18401000D01*
X34792939Y-18450500D01*
X34756702Y-18486737D01*
X34707202Y-18500000D01*
X32674000Y-18500000D01*
X32624500Y-18486737D01*
X32588263Y-18450500D01*
X32575000Y-18401000D01*
X32575000Y-17299000D01*
X32588263Y-17249500D01*
X32624500Y-17213263D01*
X32674000Y-17200000D01*
X34638279Y-17200000D01*
X34670424Y-17205364D01*
G37*
%TD.AperFunction*%
%TD*%
%TA.AperFunction,Conductor*%
%TO.N,Net-(C1-Pad2)*%
G36*
X35838000Y-19316613D02*
G01*
X35883387Y-19362000D01*
X35900000Y-19424000D01*
X35900000Y-20476000D01*
X35883387Y-20538000D01*
X35838000Y-20583387D01*
X35776000Y-20600000D01*
X34975000Y-20600000D01*
X34975000Y-22125500D01*
X34958387Y-22187500D01*
X34913000Y-22232887D01*
X34851000Y-22249500D01*
X33699000Y-22249500D01*
X33637000Y-22232887D01*
X33591613Y-22187500D01*
X33575000Y-22125500D01*
X33575000Y-19424000D01*
X33591613Y-19362000D01*
X33637000Y-19316613D01*
X33699000Y-19300000D01*
X35776000Y-19300000D01*
X35838000Y-19316613D01*
G37*
%TD.AperFunction*%
%TD*%
%TA.AperFunction,Conductor*%
%TO.N,GND*%
G36*
X46901374Y-13763584D02*
G01*
X46937561Y-13799381D01*
X46951178Y-13848426D01*
X46938627Y-13897755D01*
X46903225Y-13934327D01*
X46896872Y-13938149D01*
X46766359Y-14061777D01*
X46665470Y-14210577D01*
X46598930Y-14377582D01*
X46569844Y-14554989D01*
X46579578Y-14734504D01*
X46627671Y-14907718D01*
X46627672Y-14907720D01*
X46627673Y-14907723D01*
X46711881Y-15066556D01*
X46801068Y-15171555D01*
X46828265Y-15203574D01*
X46971380Y-15312368D01*
X46971381Y-15312368D01*
X46971382Y-15312369D01*
X47134541Y-15387854D01*
X47221664Y-15407031D01*
X47310111Y-15426500D01*
X47310113Y-15426500D01*
X47444813Y-15426500D01*
X47444816Y-15426500D01*
X47578721Y-15411937D01*
X47749085Y-15354535D01*
X47903126Y-15261851D01*
X47903126Y-15261850D01*
X47903129Y-15261849D01*
X48033640Y-15138222D01*
X48033640Y-15138221D01*
X48033642Y-15138220D01*
X48134529Y-14989423D01*
X48201070Y-14822416D01*
X48230155Y-14645010D01*
X48220422Y-14465499D01*
X48211022Y-14431645D01*
X48172328Y-14292281D01*
X48172327Y-14292277D01*
X48088119Y-14133444D01*
X47971735Y-13996426D01*
X47890045Y-13934327D01*
X47882133Y-13928312D01*
X47847406Y-13878558D01*
X47848227Y-13817888D01*
X47884289Y-13769092D01*
X47942045Y-13750499D01*
X48936136Y-13750499D01*
X48936140Y-13750500D01*
X48955830Y-13750500D01*
X48997640Y-13750500D01*
X49002350Y-13750612D01*
X49029048Y-13751883D01*
X49399250Y-13769518D01*
X49408597Y-13770411D01*
X49799572Y-13826625D01*
X49808789Y-13828401D01*
X50192639Y-13921523D01*
X50201672Y-13924174D01*
X50574927Y-14053358D01*
X50583659Y-14056854D01*
X50942949Y-14220937D01*
X50951317Y-14225252D01*
X51293370Y-14422737D01*
X51301295Y-14427830D01*
X51623028Y-14656934D01*
X51630434Y-14662758D01*
X51928921Y-14921399D01*
X51935740Y-14927900D01*
X52208306Y-15213759D01*
X52214475Y-15220879D01*
X52458627Y-15531343D01*
X52464092Y-15539018D01*
X52677623Y-15871279D01*
X52682334Y-15879438D01*
X52863321Y-16230505D01*
X52867234Y-16239074D01*
X53014025Y-16605740D01*
X53017107Y-16614644D01*
X53128384Y-16993620D01*
X53130605Y-17002775D01*
X53205353Y-17390599D01*
X53206694Y-17399924D01*
X53244239Y-17793109D01*
X53244687Y-17802520D01*
X53244687Y-18197480D01*
X53244239Y-18206891D01*
X53206694Y-18600075D01*
X53205353Y-18609400D01*
X53130605Y-18997224D01*
X53128384Y-19006379D01*
X53017107Y-19385355D01*
X53014025Y-19394259D01*
X52867234Y-19760925D01*
X52863321Y-19769494D01*
X52682334Y-20120561D01*
X52677623Y-20128720D01*
X52464092Y-20460981D01*
X52458627Y-20468656D01*
X52214475Y-20779120D01*
X52208306Y-20786240D01*
X51935740Y-21072099D01*
X51928921Y-21078600D01*
X51630434Y-21337241D01*
X51623028Y-21343065D01*
X51301295Y-21572169D01*
X51293370Y-21577262D01*
X50951317Y-21774747D01*
X50942943Y-21779065D01*
X50583666Y-21943142D01*
X50574920Y-21946643D01*
X50201676Y-22075823D01*
X50192636Y-22078477D01*
X49808806Y-22171594D01*
X49799555Y-22173377D01*
X49408613Y-22229586D01*
X49399235Y-22230482D01*
X49002351Y-22249388D01*
X48997640Y-22249500D01*
X48955830Y-22249500D01*
X48955829Y-22249500D01*
X47947817Y-22249500D01*
X47898627Y-22236415D01*
X47862440Y-22200618D01*
X47848823Y-22151572D01*
X47861375Y-22102243D01*
X47896778Y-22065671D01*
X47900343Y-22063525D01*
X47903126Y-22061851D01*
X48033642Y-21938220D01*
X48134529Y-21789423D01*
X48201070Y-21622416D01*
X48230155Y-21445010D01*
X48220422Y-21265499D01*
X48172327Y-21092277D01*
X48088119Y-20933444D01*
X47971735Y-20796426D01*
X47971734Y-20796425D01*
X47828619Y-20687631D01*
X47725118Y-20639747D01*
X47665459Y-20612146D01*
X47665457Y-20612145D01*
X47665456Y-20612145D01*
X47489889Y-20573500D01*
X47489887Y-20573500D01*
X47355184Y-20573500D01*
X47322244Y-20577082D01*
X47221279Y-20588062D01*
X47050914Y-20645465D01*
X46896870Y-20738150D01*
X46766359Y-20861777D01*
X46665470Y-21010577D01*
X46598930Y-21177582D01*
X46569844Y-21354989D01*
X46579578Y-21534504D01*
X46627671Y-21707718D01*
X46627672Y-21707720D01*
X46627673Y-21707723D01*
X46711881Y-21866556D01*
X46828265Y-22003574D01*
X46904926Y-22061850D01*
X46917866Y-22071687D01*
X46952592Y-22121442D01*
X46951771Y-22182111D01*
X46915709Y-22230907D01*
X46857953Y-22249500D01*
X44129500Y-22249500D01*
X44080000Y-22236237D01*
X44043763Y-22200000D01*
X44030500Y-22150500D01*
X44030500Y-20740785D01*
X44037405Y-20718018D01*
X44035025Y-20717545D01*
X44050500Y-20639747D01*
X44050500Y-19150254D01*
X44050500Y-19150252D01*
X44046358Y-19129429D01*
X44050427Y-19076257D01*
X44081491Y-19032908D01*
X44130536Y-19011964D01*
X44140236Y-19010687D01*
X44280233Y-18952698D01*
X44400451Y-18860451D01*
X44492698Y-18740233D01*
X44550687Y-18600236D01*
X44570466Y-18450000D01*
X44550687Y-18299764D01*
X44492698Y-18159767D01*
X44452988Y-18108016D01*
X44400451Y-18039548D01*
X44280233Y-17947302D01*
X44140235Y-17889312D01*
X44027721Y-17874500D01*
X44027720Y-17874500D01*
X43952280Y-17874500D01*
X43952279Y-17874500D01*
X43839764Y-17889312D01*
X43699766Y-17947302D01*
X43579548Y-18039548D01*
X43487302Y-18159766D01*
X43429312Y-18299764D01*
X43409534Y-18450000D01*
X43429312Y-18600235D01*
X43487302Y-18740233D01*
X43536003Y-18803701D01*
X43555984Y-18854264D01*
X43546251Y-18907755D01*
X43509740Y-18948039D01*
X43457461Y-18962968D01*
X43373999Y-18962968D01*
X43330818Y-18968653D01*
X43317896Y-18969500D01*
X43230252Y-18969500D01*
X43171769Y-18981133D01*
X43171768Y-18981133D01*
X43152455Y-18984975D01*
X43152269Y-18984044D01*
X43124993Y-18992316D01*
X43097730Y-18984044D01*
X43097545Y-18984975D01*
X43078231Y-18981133D01*
X43019748Y-18969500D01*
X43019747Y-18969500D01*
X42799500Y-18969500D01*
X42750000Y-18956237D01*
X42713763Y-18920000D01*
X42700500Y-18870500D01*
X42700500Y-18696712D01*
X42706742Y-18662115D01*
X42724681Y-18631881D01*
X42738213Y-18616263D01*
X42775378Y-18573373D01*
X42835166Y-18442457D01*
X42855648Y-18300000D01*
X42835166Y-18157543D01*
X42775378Y-18026627D01*
X42681129Y-17917857D01*
X42681128Y-17917856D01*
X42681126Y-17917854D01*
X42560055Y-17840047D01*
X42421962Y-17799500D01*
X42278040Y-17799500D01*
X42139946Y-17840047D01*
X42018875Y-17917854D01*
X41924623Y-18026628D01*
X41864835Y-18157544D01*
X41844353Y-18300000D01*
X41847176Y-18319631D01*
X41841546Y-18369360D01*
X41812312Y-18409981D01*
X41766946Y-18431114D01*
X41717041Y-18427357D01*
X41684527Y-18416195D01*
X41680610Y-18415625D01*
X41630267Y-18417707D01*
X41626025Y-18417883D01*
X41621935Y-18417968D01*
X41299500Y-18417968D01*
X41250000Y-18404705D01*
X41213763Y-18368468D01*
X41200500Y-18318968D01*
X41200500Y-18083880D01*
X41202607Y-18063564D01*
X41205042Y-18051951D01*
X41201260Y-18021610D01*
X41200500Y-18009365D01*
X41200500Y-18008227D01*
X41199127Y-17999999D01*
X41197244Y-17988720D01*
X41196658Y-17984696D01*
X41190573Y-17935873D01*
X41190571Y-17935870D01*
X41189896Y-17930448D01*
X41188693Y-17926692D01*
X41162686Y-17878636D01*
X41160813Y-17874997D01*
X41143727Y-17840047D01*
X41139198Y-17830782D01*
X41139196Y-17830780D01*
X41136801Y-17825880D01*
X41134436Y-17822707D01*
X41112507Y-17802520D01*
X41094221Y-17785686D01*
X41091294Y-17782878D01*
X39512003Y-16203587D01*
X39499127Y-16187730D01*
X39492638Y-16177798D01*
X39468511Y-16159019D01*
X39459320Y-16150903D01*
X39458512Y-16150095D01*
X39442430Y-16138613D01*
X39439151Y-16136168D01*
X39424905Y-16125080D01*
X39400328Y-16105951D01*
X39400326Y-16105950D01*
X39396024Y-16102602D01*
X39392494Y-16100784D01*
X39340111Y-16085188D01*
X39336218Y-16083940D01*
X39284530Y-16066196D01*
X39280610Y-16065625D01*
X39230267Y-16067707D01*
X39226025Y-16067883D01*
X39221935Y-16067968D01*
X35539578Y-16067968D01*
X35501692Y-16060432D01*
X35469574Y-16038972D01*
X34734189Y-15303587D01*
X34721313Y-15287730D01*
X34714825Y-15277799D01*
X34714034Y-15277183D01*
X34690697Y-15259019D01*
X34681506Y-15250903D01*
X34680698Y-15250095D01*
X34664616Y-15238613D01*
X34661337Y-15236168D01*
X34641692Y-15220878D01*
X34622514Y-15205951D01*
X34622512Y-15205950D01*
X34618210Y-15202602D01*
X34614680Y-15200784D01*
X34562297Y-15185188D01*
X34558404Y-15183940D01*
X34506716Y-15166196D01*
X34502796Y-15165625D01*
X34452453Y-15167707D01*
X34448211Y-15167883D01*
X34444121Y-15167968D01*
X33910950Y-15167968D01*
X33674690Y-15167968D01*
X33140950Y-15167968D01*
X32904690Y-15167968D01*
X29477821Y-15167968D01*
X29457505Y-15165861D01*
X29445887Y-15163425D01*
X29415539Y-15167208D01*
X29403294Y-15167968D01*
X29402162Y-15167968D01*
X29396168Y-15168968D01*
X29382673Y-15171219D01*
X29378633Y-15171807D01*
X29324405Y-15178568D01*
X29320610Y-15179784D01*
X29272562Y-15205786D01*
X29268926Y-15207657D01*
X29219827Y-15231660D01*
X29216632Y-15234042D01*
X29179634Y-15274232D01*
X29176803Y-15277183D01*
X28716319Y-15737667D01*
X28700467Y-15750540D01*
X28690532Y-15757031D01*
X28671748Y-15781164D01*
X28663639Y-15790348D01*
X28662829Y-15791158D01*
X28651336Y-15807254D01*
X28648893Y-15810530D01*
X28613828Y-15855583D01*
X28563951Y-15889661D01*
X28503558Y-15888413D01*
X28455131Y-15852304D01*
X28436702Y-15794777D01*
X28436702Y-15117468D01*
X28429700Y-15064283D01*
X28416436Y-15014781D01*
X28412738Y-15005851D01*
X28405680Y-14958262D01*
X28421888Y-14912965D01*
X28457535Y-14880657D01*
X28504203Y-14868968D01*
X32551454Y-14868968D01*
X32787714Y-14868968D01*
X32875242Y-14868968D01*
X33140950Y-14868968D01*
X33321454Y-14868968D01*
X33557714Y-14868968D01*
X33645242Y-14868968D01*
X33910950Y-14868968D01*
X34708921Y-14868968D01*
X34762444Y-14884684D01*
X34798975Y-14926842D01*
X34805825Y-14941843D01*
X34900073Y-15050611D01*
X35021147Y-15128420D01*
X35021149Y-15128421D01*
X35159241Y-15168968D01*
X35303163Y-15168968D01*
X35441255Y-15128421D01*
X35562330Y-15050611D01*
X35656579Y-14941841D01*
X35716367Y-14810925D01*
X35736849Y-14668468D01*
X35736076Y-14663089D01*
X35744015Y-14607874D01*
X35780545Y-14565716D01*
X35834068Y-14550000D01*
X35953163Y-14550000D01*
X36091255Y-14509453D01*
X36212330Y-14431643D01*
X36306579Y-14322873D01*
X36366367Y-14191957D01*
X36386849Y-14049500D01*
X36386849Y-14049499D01*
X36366368Y-13907045D01*
X36358869Y-13890625D01*
X36350175Y-13842436D01*
X36365639Y-13795976D01*
X36401477Y-13762609D01*
X36448923Y-13750499D01*
X46852184Y-13750499D01*
X46901374Y-13763584D01*
G37*
%TD.AperFunction*%
%TA.AperFunction,Conductor*%
G36*
X23719481Y-13767184D02*
G01*
X23755944Y-13811613D01*
X23761578Y-13868813D01*
X23734484Y-13919503D01*
X22389504Y-15264483D01*
X22338814Y-15291577D01*
X22281614Y-15285943D01*
X22237185Y-15249480D01*
X22220500Y-15194479D01*
X22220500Y-15135683D01*
X22218102Y-15117468D01*
X22214068Y-15086827D01*
X22164065Y-14979596D01*
X22080404Y-14895935D01*
X22080402Y-14895934D01*
X22080401Y-14895933D01*
X21973174Y-14845932D01*
X21924317Y-14839500D01*
X21924316Y-14839500D01*
X21475684Y-14839500D01*
X21475683Y-14839500D01*
X21426825Y-14845932D01*
X21319598Y-14895933D01*
X21319596Y-14895934D01*
X21319596Y-14895935D01*
X21235935Y-14979596D01*
X21235934Y-14979597D01*
X21223592Y-14991940D01*
X21222622Y-14990970D01*
X21203192Y-15013126D01*
X21150000Y-15028630D01*
X21096808Y-15013126D01*
X21077377Y-14990970D01*
X21076408Y-14991940D01*
X21064065Y-14979597D01*
X21064065Y-14979596D01*
X20980404Y-14895935D01*
X20980402Y-14895934D01*
X20980401Y-14895933D01*
X20873174Y-14845932D01*
X20824317Y-14839500D01*
X20824316Y-14839500D01*
X20375684Y-14839500D01*
X20375683Y-14839500D01*
X20326825Y-14845932D01*
X20219598Y-14895933D01*
X20135933Y-14979598D01*
X20085932Y-15086825D01*
X20079500Y-15135683D01*
X20079500Y-15484317D01*
X20085931Y-15533171D01*
X20132993Y-15634095D01*
X20142267Y-15675541D01*
X20133322Y-15717059D01*
X20114834Y-15757543D01*
X20094352Y-15900000D01*
X20114834Y-16042455D01*
X20153164Y-16126386D01*
X20174623Y-16173373D01*
X20268872Y-16282143D01*
X20268874Y-16282145D01*
X20341957Y-16329112D01*
X20389947Y-16359953D01*
X20528039Y-16400500D01*
X20671961Y-16400500D01*
X20810053Y-16359953D01*
X20931128Y-16282143D01*
X21025377Y-16173373D01*
X21059947Y-16097675D01*
X21096477Y-16055519D01*
X21150000Y-16039803D01*
X21203523Y-16055519D01*
X21240052Y-16097675D01*
X21274623Y-16173373D01*
X21368872Y-16282143D01*
X21368874Y-16282145D01*
X21441957Y-16329112D01*
X21489947Y-16359953D01*
X21628039Y-16400500D01*
X21681702Y-16400500D01*
X21731202Y-16413763D01*
X21767439Y-16450000D01*
X21780702Y-16499500D01*
X21780702Y-16500288D01*
X21780702Y-18036648D01*
X21791100Y-18108016D01*
X21844919Y-18218103D01*
X21931567Y-18304751D01*
X21931568Y-18304751D01*
X21935977Y-18309160D01*
X21960789Y-18328595D01*
X21980077Y-18365047D01*
X21982839Y-18406196D01*
X21969352Y-18499999D01*
X21989834Y-18642455D01*
X21989835Y-18642457D01*
X22049623Y-18773373D01*
X22143872Y-18882143D01*
X22143874Y-18882145D01*
X22264945Y-18959952D01*
X22264947Y-18959953D01*
X22403039Y-19000500D01*
X22546961Y-19000500D01*
X22685053Y-18959953D01*
X22806128Y-18882143D01*
X22900377Y-18773373D01*
X22960165Y-18642457D01*
X22973986Y-18546329D01*
X22977008Y-18525312D01*
X23000181Y-18474570D01*
X23047108Y-18444411D01*
X23102892Y-18444411D01*
X23149819Y-18474570D01*
X23172992Y-18525312D01*
X23189834Y-18642455D01*
X23189835Y-18642457D01*
X23249623Y-18773373D01*
X23343872Y-18882143D01*
X23343874Y-18882145D01*
X23464945Y-18959952D01*
X23464947Y-18959953D01*
X23603039Y-19000500D01*
X23746961Y-19000500D01*
X23885053Y-18959953D01*
X24006128Y-18882143D01*
X24100377Y-18773373D01*
X24160165Y-18642457D01*
X24180647Y-18500000D01*
X24168853Y-18417968D01*
X24167975Y-18411862D01*
X24170737Y-18370714D01*
X24190024Y-18334262D01*
X24222485Y-18308833D01*
X24230837Y-18304751D01*
X24317485Y-18218103D01*
X24371304Y-18108016D01*
X24381702Y-18036648D01*
X24381702Y-16500288D01*
X24371304Y-16428920D01*
X24317485Y-16318833D01*
X24230837Y-16232185D01*
X24120750Y-16178366D01*
X24116426Y-16177736D01*
X24073175Y-16160342D01*
X24042679Y-16125080D01*
X24031702Y-16079771D01*
X24031702Y-15361764D01*
X24039238Y-15323878D01*
X24060698Y-15291760D01*
X24454494Y-14897964D01*
X24486612Y-14876504D01*
X24524498Y-14868968D01*
X25758201Y-14868968D01*
X25804869Y-14880657D01*
X25840516Y-14912965D01*
X25856724Y-14958262D01*
X25849666Y-15005851D01*
X25845967Y-15014781D01*
X25832703Y-15064283D01*
X25825702Y-15117468D01*
X25825702Y-18069468D01*
X25832703Y-18122652D01*
X25845966Y-18172151D01*
X25866495Y-18221716D01*
X25866496Y-18221717D01*
X25899155Y-18264278D01*
X25935392Y-18300515D01*
X25977953Y-18333174D01*
X26027517Y-18353703D01*
X26077017Y-18366966D01*
X26130202Y-18373968D01*
X28132202Y-18373968D01*
X28185387Y-18366966D01*
X28234887Y-18353703D01*
X28284451Y-18333174D01*
X28296215Y-18324146D01*
X28346609Y-18304180D01*
X28399966Y-18313746D01*
X28430340Y-18328595D01*
X28491654Y-18358570D01*
X28563022Y-18368968D01*
X29299380Y-18368968D01*
X29299382Y-18368968D01*
X29370750Y-18358570D01*
X29480837Y-18304751D01*
X29480838Y-18304749D01*
X29487721Y-18301385D01*
X29531202Y-18291325D01*
X29574683Y-18301385D01*
X29581565Y-18304749D01*
X29581567Y-18304751D01*
X29691654Y-18358570D01*
X29763022Y-18368968D01*
X30499380Y-18368968D01*
X30499382Y-18368968D01*
X30570750Y-18358570D01*
X30680837Y-18304751D01*
X30767485Y-18218103D01*
X30821304Y-18108016D01*
X30831702Y-18036648D01*
X30831702Y-16500288D01*
X30829072Y-16482239D01*
X30836933Y-16426955D01*
X30873462Y-16384718D01*
X30927038Y-16368968D01*
X32551454Y-16368968D01*
X33321454Y-16368968D01*
X33795012Y-16368968D01*
X33832898Y-16376504D01*
X33865016Y-16397964D01*
X34292548Y-16825496D01*
X34319642Y-16876186D01*
X34314008Y-16933386D01*
X34277545Y-16977815D01*
X34222544Y-16994500D01*
X32674000Y-16994500D01*
X32620815Y-17001501D01*
X32571316Y-17014764D01*
X32521751Y-17035293D01*
X32479192Y-17067951D01*
X32442951Y-17104192D01*
X32410293Y-17146751D01*
X32389764Y-17196316D01*
X32376501Y-17245815D01*
X32369500Y-17299000D01*
X32369500Y-17867818D01*
X32369065Y-17875000D01*
X32369500Y-17882182D01*
X32369500Y-18401000D01*
X32376501Y-18454184D01*
X32389764Y-18503683D01*
X32410293Y-18553248D01*
X32415616Y-18560185D01*
X32442953Y-18595810D01*
X32479190Y-18632047D01*
X32521751Y-18664706D01*
X32571315Y-18685235D01*
X32620815Y-18698498D01*
X32674000Y-18705500D01*
X34707202Y-18705500D01*
X34760387Y-18698498D01*
X34809887Y-18685235D01*
X34859451Y-18664706D01*
X34902012Y-18632047D01*
X34938249Y-18595810D01*
X34970908Y-18553249D01*
X34991437Y-18503685D01*
X35004700Y-18454185D01*
X35011702Y-18401000D01*
X35011702Y-17367968D01*
X35024965Y-17318468D01*
X35061202Y-17282231D01*
X35110702Y-17268968D01*
X38837906Y-17268968D01*
X38875792Y-17276504D01*
X38907910Y-17297964D01*
X39261634Y-17651688D01*
X39287103Y-17695500D01*
X39287555Y-17746176D01*
X39262872Y-17790435D01*
X39219521Y-17816682D01*
X39139945Y-17840047D01*
X39018874Y-17917854D01*
X38924622Y-18026628D01*
X38875818Y-18133492D01*
X38843907Y-18172493D01*
X38796932Y-18190733D01*
X38747064Y-18183487D01*
X38707223Y-18152632D01*
X38620451Y-18039548D01*
X38500233Y-17947302D01*
X38360235Y-17889312D01*
X38247721Y-17874500D01*
X38247720Y-17874500D01*
X38172280Y-17874500D01*
X38172279Y-17874500D01*
X38059764Y-17889312D01*
X37919766Y-17947302D01*
X37799548Y-18039548D01*
X37707302Y-18159766D01*
X37649312Y-18299764D01*
X37629534Y-18450000D01*
X37649312Y-18600235D01*
X37707302Y-18740233D01*
X37799548Y-18860451D01*
X37861196Y-18907755D01*
X37919767Y-18952698D01*
X38059764Y-19010687D01*
X38065194Y-19011401D01*
X38069463Y-19011964D01*
X38118508Y-19032907D01*
X38149572Y-19076255D01*
X38153641Y-19129429D01*
X38149500Y-19150250D01*
X38149500Y-20520500D01*
X38136237Y-20570000D01*
X38100000Y-20606237D01*
X38050500Y-20619500D01*
X36199496Y-20619500D01*
X36146304Y-20603996D01*
X36109772Y-20562340D01*
X36101343Y-20507579D01*
X36105500Y-20476001D01*
X36105500Y-19424000D01*
X36101008Y-19389876D01*
X36098498Y-19370812D01*
X36081885Y-19308812D01*
X36061355Y-19259250D01*
X36028697Y-19216690D01*
X35983310Y-19171303D01*
X35940750Y-19138645D01*
X35891188Y-19118115D01*
X35855389Y-19108522D01*
X35829185Y-19101501D01*
X35776000Y-19094500D01*
X33699000Y-19094500D01*
X33645814Y-19101501D01*
X33583812Y-19118115D01*
X33534249Y-19138645D01*
X33491690Y-19171302D01*
X33446302Y-19216690D01*
X33413645Y-19259249D01*
X33393115Y-19308812D01*
X33376501Y-19370814D01*
X33369500Y-19424000D01*
X33369500Y-22125501D01*
X33371090Y-22137579D01*
X33362661Y-22192340D01*
X33326129Y-22233996D01*
X33272937Y-22249500D01*
X20147817Y-22249500D01*
X20098627Y-22236415D01*
X20062440Y-22200618D01*
X20048823Y-22151572D01*
X20061375Y-22102243D01*
X20096778Y-22065671D01*
X20100343Y-22063525D01*
X20103126Y-22061851D01*
X20233642Y-21938220D01*
X20334529Y-21789423D01*
X20401070Y-21622416D01*
X20430155Y-21445010D01*
X20420422Y-21265499D01*
X20372327Y-21092277D01*
X20288119Y-20933444D01*
X20171735Y-20796426D01*
X20171734Y-20796425D01*
X20028619Y-20687631D01*
X19925118Y-20639747D01*
X19865459Y-20612146D01*
X19865457Y-20612145D01*
X19865456Y-20612145D01*
X19689889Y-20573500D01*
X19689887Y-20573500D01*
X19555184Y-20573500D01*
X19522244Y-20577082D01*
X19421279Y-20588062D01*
X19250914Y-20645465D01*
X19096870Y-20738150D01*
X18966359Y-20861777D01*
X18865470Y-21010577D01*
X18798930Y-21177582D01*
X18769844Y-21354989D01*
X18779578Y-21534504D01*
X18827671Y-21707718D01*
X18827672Y-21707720D01*
X18827673Y-21707723D01*
X18911881Y-21866556D01*
X19028265Y-22003574D01*
X19104926Y-22061850D01*
X19117866Y-22071687D01*
X19152592Y-22121442D01*
X19151771Y-22182111D01*
X19115709Y-22230907D01*
X19057953Y-22249500D01*
X18002358Y-22249500D01*
X17997648Y-22249388D01*
X17600765Y-22230483D01*
X17591386Y-22229587D01*
X17200444Y-22173378D01*
X17191193Y-22171595D01*
X16807363Y-22078478D01*
X16798323Y-22075824D01*
X16425079Y-21946643D01*
X16416333Y-21943142D01*
X16057056Y-21779066D01*
X16048682Y-21774749D01*
X15706628Y-21577264D01*
X15698702Y-21572170D01*
X15376970Y-21343065D01*
X15369565Y-21337241D01*
X15071078Y-21078601D01*
X15064259Y-21072100D01*
X14863716Y-20861777D01*
X14791687Y-20786236D01*
X14785523Y-20779121D01*
X14785522Y-20779120D01*
X14541372Y-20468656D01*
X14535911Y-20460987D01*
X14322373Y-20128717D01*
X14317663Y-20120558D01*
X14261620Y-20011851D01*
X14251375Y-19954232D01*
X14275460Y-19900895D01*
X14325456Y-19870479D01*
X14383895Y-19873611D01*
X14430354Y-19909197D01*
X14493804Y-19998621D01*
X14733338Y-20266661D01*
X15001378Y-20506195D01*
X15161066Y-20619500D01*
X15294548Y-20714211D01*
X15609167Y-20888094D01*
X15941276Y-21025659D01*
X16286700Y-21125173D01*
X16595156Y-21177582D01*
X16641093Y-21185387D01*
X16910197Y-21200500D01*
X16910202Y-21200500D01*
X17089798Y-21200500D01*
X17089803Y-21200500D01*
X17314055Y-21187905D01*
X17358907Y-21185387D01*
X17713300Y-21125173D01*
X18058724Y-21025659D01*
X18390833Y-20888094D01*
X18705452Y-20714211D01*
X18998623Y-20506194D01*
X19266661Y-20266661D01*
X19506194Y-19998623D01*
X19714211Y-19705452D01*
X19888094Y-19390833D01*
X20025659Y-19058724D01*
X20125173Y-18713300D01*
X20185387Y-18358907D01*
X20205543Y-18000000D01*
X20185387Y-17641093D01*
X20125173Y-17286700D01*
X20025659Y-16941276D01*
X19888094Y-16609167D01*
X19714211Y-16294548D01*
X19705409Y-16282143D01*
X19506195Y-16001378D01*
X19266661Y-15733338D01*
X18998621Y-15493804D01*
X18705451Y-15285788D01*
X18516128Y-15181154D01*
X18390833Y-15111906D01*
X18224778Y-15043123D01*
X18058723Y-14974340D01*
X17713297Y-14874826D01*
X17358906Y-14814612D01*
X17089803Y-14799500D01*
X17089798Y-14799500D01*
X16910202Y-14799500D01*
X16910197Y-14799500D01*
X16641093Y-14814612D01*
X16286702Y-14874826D01*
X15941276Y-14974340D01*
X15609165Y-15111907D01*
X15294548Y-15285788D01*
X15001378Y-15493804D01*
X14733338Y-15733338D01*
X14493804Y-16001378D01*
X14430356Y-16090800D01*
X14383897Y-16126386D01*
X14325458Y-16129518D01*
X14275462Y-16099102D01*
X14251377Y-16045765D01*
X14261620Y-15988148D01*
X14317670Y-15879427D01*
X14322373Y-15871283D01*
X14323861Y-15868968D01*
X14535915Y-15539004D01*
X14541370Y-15531345D01*
X14785536Y-15220862D01*
X14791678Y-15213773D01*
X15064264Y-14927893D01*
X15071077Y-14921399D01*
X15369573Y-14662751D01*
X15376960Y-14656941D01*
X15698706Y-14427826D01*
X15706628Y-14422735D01*
X16048696Y-14225242D01*
X16057041Y-14220940D01*
X16416347Y-14056851D01*
X16425065Y-14053361D01*
X16798333Y-13924171D01*
X16807354Y-13921523D01*
X17191214Y-13828399D01*
X17200423Y-13826624D01*
X17591404Y-13770410D01*
X17600747Y-13769517D01*
X17972491Y-13751809D01*
X17997649Y-13750611D01*
X18002359Y-13750499D01*
X23664480Y-13750499D01*
X23719481Y-13767184D01*
G37*
%TD.AperFunction*%
%TD*%
M02*
