%TF.GenerationSoftware,KiCad,Pcbnew,7.0.1*%
%TF.CreationDate,2023-04-06T02:47:11+01:00*%
%TF.ProjectId,Casaba,43617361-6261-42e6-9b69-6361645f7063,rev?*%
%TF.SameCoordinates,Original*%
%TF.FileFunction,Copper,L2,Bot*%
%TF.FilePolarity,Positive*%
%FSLAX46Y46*%
G04 Gerber Fmt 4.6, Leading zero omitted, Abs format (unit mm)*
G04 Created by KiCad (PCBNEW 7.0.1) date 2023-04-06 02:47:11*
%MOMM*%
%LPD*%
G01*
G04 APERTURE LIST*
G04 Aperture macros list*
%AMRoundRect*
0 Rectangle with rounded corners*
0 $1 Rounding radius*
0 $2 $3 $4 $5 $6 $7 $8 $9 X,Y pos of 4 corners*
0 Add a 4 corners polygon primitive as box body*
4,1,4,$2,$3,$4,$5,$6,$7,$8,$9,$2,$3,0*
0 Add four circle primitives for the rounded corners*
1,1,$1+$1,$2,$3*
1,1,$1+$1,$4,$5*
1,1,$1+$1,$6,$7*
1,1,$1+$1,$8,$9*
0 Add four rect primitives between the rounded corners*
20,1,$1+$1,$2,$3,$4,$5,0*
20,1,$1+$1,$4,$5,$6,$7,0*
20,1,$1+$1,$6,$7,$8,$9,0*
20,1,$1+$1,$8,$9,$2,$3,0*%
G04 Aperture macros list end*
%TA.AperFunction,ComponentPad*%
%ADD10C,6.400000*%
%TD*%
%TA.AperFunction,ComponentPad*%
%ADD11C,0.600000*%
%TD*%
%TA.AperFunction,SMDPad,CuDef*%
%ADD12RoundRect,0.100000X-0.625000X-0.900000X0.625000X-0.900000X0.625000X0.900000X-0.625000X0.900000X0*%
%TD*%
%TA.AperFunction,ComponentPad*%
%ADD13O,1.000000X2.100000*%
%TD*%
%TA.AperFunction,ComponentPad*%
%ADD14O,1.000000X1.600000*%
%TD*%
%TA.AperFunction,SMDPad,CuDef*%
%ADD15R,1.000000X0.500000*%
%TD*%
%TA.AperFunction,ViaPad*%
%ADD16C,0.600000*%
%TD*%
%TA.AperFunction,ViaPad*%
%ADD17C,1.000000*%
%TD*%
%TA.AperFunction,Conductor*%
%ADD18C,0.700000*%
%TD*%
%TA.AperFunction,Conductor*%
%ADD19C,0.300000*%
%TD*%
G04 APERTURE END LIST*
D10*
%TO.P,H1,1,1*%
%TO.N,GND*%
X50000000Y-18000000D03*
%TD*%
D11*
%TO.P,J3,MP,MountPin*%
%TO.N,GND*%
X21281202Y-20268468D03*
D12*
X21706202Y-20968468D03*
D11*
X22081202Y-20268468D03*
X22081202Y-20968468D03*
X22081202Y-21668468D03*
X24081202Y-20268468D03*
X24081202Y-20968468D03*
X24081202Y-21668468D03*
D12*
X24456202Y-20968468D03*
D11*
X24831202Y-20268468D03*
%TD*%
D13*
%TO.P,J1,S1,SHIELD*%
%TO.N,GND*%
X45420000Y-18980000D03*
D14*
X45420000Y-14800000D03*
D13*
X36780000Y-18980000D03*
D14*
X36780000Y-14800000D03*
%TD*%
D11*
%TO.P,J2,MP,MountPin*%
%TO.N,GND*%
X26531202Y-20268468D03*
D12*
X26956202Y-20968468D03*
D11*
X27331202Y-20268468D03*
X27331202Y-20968468D03*
X27331202Y-21668468D03*
X31731202Y-20268468D03*
X31731202Y-20968468D03*
X31731202Y-21668468D03*
D12*
X32106202Y-20968468D03*
D11*
X32481202Y-20268468D03*
%TD*%
D15*
%TO.P,JP1,1,A*%
%TO.N,/CC1*%
X22150000Y-17750000D03*
%TO.P,JP1,2,B*%
%TO.N,Net-(JP1-B)*%
X22150000Y-17050000D03*
%TD*%
%TO.P,JP2,1,A*%
%TO.N,/CC2*%
X24000000Y-17750000D03*
%TO.P,JP2,2,B*%
%TO.N,Net-(JP2-B)*%
X24000000Y-17050000D03*
%TD*%
D16*
%TO.N,GND*%
X45600000Y-21218468D03*
D17*
X31300000Y-19250000D03*
X25081202Y-16518468D03*
D16*
X28781202Y-15218468D03*
X32231202Y-16668468D03*
X45600000Y-21918468D03*
D17*
%TO.N,VBUS*%
X42600000Y-21550000D03*
X37675000Y-21550000D03*
D16*
%TO.N,/CC1*%
X35881202Y-14049500D03*
X42350001Y-18300000D03*
X22475000Y-18500000D03*
%TO.N,/CC2*%
X23675000Y-18500000D03*
X35231202Y-14668468D03*
X39350000Y-18300000D03*
D17*
%TO.N,+5V*%
X27631202Y-15518468D03*
X33075000Y-17875000D03*
D16*
%TO.N,Net-(JP1-B)*%
X20600000Y-15900000D03*
%TO.N,Net-(JP2-B)*%
X21700000Y-15900000D03*
%TD*%
D18*
%TO.N,GND*%
X50000000Y-15400000D02*
X50000000Y-18000000D01*
D19*
%TO.N,/CC1*%
X35881202Y-15931202D02*
X35881202Y-14049500D01*
X42350001Y-18300000D02*
X40618469Y-16568468D01*
X22475000Y-18500000D02*
X22475000Y-17750000D01*
X40618469Y-16568468D02*
X36518468Y-16568468D01*
X36518468Y-16568468D02*
X35881202Y-15931202D01*
%TO.N,/CC2*%
X39350000Y-18300000D02*
X38118468Y-17068468D01*
X23675000Y-18500000D02*
X23675000Y-17750000D01*
X35231202Y-15988308D02*
X35231202Y-14668468D01*
X38118468Y-17068468D02*
X36311362Y-17068468D01*
X36311362Y-17068468D02*
X35231202Y-15988308D01*
%TO.N,Net-(JP1-B)*%
X22150000Y-17050000D02*
X21250000Y-17050000D01*
X20600000Y-16400000D02*
X21250000Y-17050000D01*
X20600000Y-15900000D02*
X20600000Y-16400000D01*
%TO.N,Net-(JP2-B)*%
X23675000Y-16375000D02*
X23675000Y-17050000D01*
X23200000Y-15900000D02*
X23675000Y-16375000D01*
X21700000Y-15900000D02*
X23200000Y-15900000D01*
%TD*%
%TA.AperFunction,Conductor*%
%TO.N,GND*%
G36*
X35360927Y-13762609D02*
G01*
X35396765Y-13795976D01*
X35412229Y-13842436D01*
X35403535Y-13890625D01*
X35396035Y-13907045D01*
X35375554Y-14049500D01*
X35376328Y-14054879D01*
X35368389Y-14110094D01*
X35331859Y-14152252D01*
X35278336Y-14167968D01*
X35159241Y-14167968D01*
X35021147Y-14208515D01*
X34900076Y-14286322D01*
X34805824Y-14395096D01*
X34746036Y-14526012D01*
X34725554Y-14668468D01*
X34746036Y-14810923D01*
X34746037Y-14810925D01*
X34805825Y-14941841D01*
X34856523Y-15000350D01*
X34874460Y-15030582D01*
X34880702Y-15065179D01*
X34880702Y-15941689D01*
X34878595Y-15962005D01*
X34876159Y-15973622D01*
X34879942Y-16003971D01*
X34880702Y-16016216D01*
X34880702Y-16017350D01*
X34883953Y-16036836D01*
X34884542Y-16040880D01*
X34891303Y-16095112D01*
X34892514Y-16098893D01*
X34918524Y-16146954D01*
X34920397Y-16150593D01*
X34944400Y-16199693D01*
X34946770Y-16202872D01*
X34986966Y-16239875D01*
X34989919Y-16242707D01*
X36030558Y-17283345D01*
X36043433Y-17299201D01*
X36049924Y-17309137D01*
X36074049Y-17327913D01*
X36083248Y-17336035D01*
X36084058Y-17336845D01*
X36100133Y-17348322D01*
X36103385Y-17350746D01*
X36142236Y-17380985D01*
X36142237Y-17380985D01*
X36146551Y-17384343D01*
X36150059Y-17386148D01*
X36155294Y-17387706D01*
X36155296Y-17387708D01*
X36202429Y-17401740D01*
X36206325Y-17402988D01*
X36227137Y-17410132D01*
X36252874Y-17418968D01*
X36252876Y-17418968D01*
X36258035Y-17420739D01*
X36261953Y-17421310D01*
X36267406Y-17421084D01*
X36267408Y-17421085D01*
X36316538Y-17419052D01*
X36320629Y-17418968D01*
X37932278Y-17418968D01*
X37970164Y-17426504D01*
X38002282Y-17447964D01*
X38259814Y-17705496D01*
X38286908Y-17756186D01*
X38281274Y-17813386D01*
X38244811Y-17857815D01*
X38189810Y-17874500D01*
X38172279Y-17874500D01*
X38059764Y-17889312D01*
X37919766Y-17947302D01*
X37799548Y-18039548D01*
X37707302Y-18159766D01*
X37649312Y-18299764D01*
X37629534Y-18450000D01*
X37649312Y-18600235D01*
X37707302Y-18740233D01*
X37799548Y-18860451D01*
X37891794Y-18931234D01*
X37919767Y-18952698D01*
X38027262Y-18997224D01*
X38059764Y-19010687D01*
X38172279Y-19025500D01*
X38172280Y-19025500D01*
X38247720Y-19025500D01*
X38247721Y-19025500D01*
X38303977Y-19018093D01*
X38360236Y-19010687D01*
X38500233Y-18952698D01*
X38620451Y-18860451D01*
X38712698Y-18740233D01*
X38766671Y-18609929D01*
X38796705Y-18570181D01*
X38842298Y-18550093D01*
X38891902Y-18554755D01*
X38932952Y-18582986D01*
X39003763Y-18664706D01*
X39018874Y-18682145D01*
X39139945Y-18759952D01*
X39139947Y-18759953D01*
X39278039Y-18800500D01*
X39421961Y-18800500D01*
X39560053Y-18759953D01*
X39681128Y-18682143D01*
X39775377Y-18573373D01*
X39835165Y-18442457D01*
X39855647Y-18300000D01*
X39835165Y-18157543D01*
X39775377Y-18026627D01*
X39681128Y-17917857D01*
X39681127Y-17917856D01*
X39681125Y-17917854D01*
X39560054Y-17840047D01*
X39421961Y-17799500D01*
X39386190Y-17799500D01*
X39348304Y-17791964D01*
X39316186Y-17770504D01*
X38633654Y-17087972D01*
X38606560Y-17037282D01*
X38612194Y-16980082D01*
X38648657Y-16935653D01*
X38703658Y-16918968D01*
X40432279Y-16918968D01*
X40470165Y-16926504D01*
X40502283Y-16947964D01*
X41819382Y-18265063D01*
X41837906Y-18290753D01*
X41847370Y-18320978D01*
X41864835Y-18442455D01*
X41915433Y-18553249D01*
X41924624Y-18573373D01*
X42003764Y-18664706D01*
X42018875Y-18682145D01*
X42139946Y-18759952D01*
X42139948Y-18759953D01*
X42278040Y-18800500D01*
X42421962Y-18800500D01*
X42560054Y-18759953D01*
X42681129Y-18682143D01*
X42775378Y-18573373D01*
X42831721Y-18450000D01*
X43409534Y-18450000D01*
X43429312Y-18600235D01*
X43487302Y-18740233D01*
X43579548Y-18860451D01*
X43671794Y-18931234D01*
X43699767Y-18952698D01*
X43807262Y-18997224D01*
X43839764Y-19010687D01*
X43952279Y-19025500D01*
X43952280Y-19025500D01*
X44027720Y-19025500D01*
X44027721Y-19025500D01*
X44083977Y-19018093D01*
X44140236Y-19010687D01*
X44280233Y-18952698D01*
X44400451Y-18860451D01*
X44492698Y-18740233D01*
X44550687Y-18600236D01*
X44570466Y-18450000D01*
X44550687Y-18299764D01*
X44492698Y-18159767D01*
X44471234Y-18131795D01*
X44400451Y-18039548D01*
X44280233Y-17947302D01*
X44140235Y-17889312D01*
X44027721Y-17874500D01*
X44027720Y-17874500D01*
X43952280Y-17874500D01*
X43952279Y-17874500D01*
X43839764Y-17889312D01*
X43699766Y-17947302D01*
X43579548Y-18039548D01*
X43487302Y-18159766D01*
X43429312Y-18299764D01*
X43409534Y-18450000D01*
X42831721Y-18450000D01*
X42835166Y-18442457D01*
X42855648Y-18300000D01*
X42835166Y-18157543D01*
X42775378Y-18026627D01*
X42681129Y-17917857D01*
X42681128Y-17917856D01*
X42681126Y-17917854D01*
X42560055Y-17840047D01*
X42421962Y-17799500D01*
X42386191Y-17799500D01*
X42348305Y-17791964D01*
X42316187Y-17770504D01*
X40899270Y-16353587D01*
X40886394Y-16337730D01*
X40879906Y-16327799D01*
X40879905Y-16327798D01*
X40855778Y-16309019D01*
X40846587Y-16300903D01*
X40845779Y-16300095D01*
X40829697Y-16288613D01*
X40826418Y-16286168D01*
X40801712Y-16266939D01*
X40787595Y-16255951D01*
X40787593Y-16255950D01*
X40783291Y-16252602D01*
X40779761Y-16250784D01*
X40727378Y-16235188D01*
X40723485Y-16233940D01*
X40671797Y-16216196D01*
X40667877Y-16215625D01*
X40617534Y-16217707D01*
X40613292Y-16217883D01*
X40609202Y-16217968D01*
X36704658Y-16217968D01*
X36666772Y-16210432D01*
X36634654Y-16188972D01*
X36260698Y-15815016D01*
X36239238Y-15782898D01*
X36231702Y-15745012D01*
X36231702Y-14446211D01*
X36237944Y-14411614D01*
X36255880Y-14381382D01*
X36306579Y-14322873D01*
X36366367Y-14191957D01*
X36386849Y-14049500D01*
X36386849Y-14049499D01*
X36366368Y-13907045D01*
X36358869Y-13890625D01*
X36350175Y-13842436D01*
X36365639Y-13795976D01*
X36401477Y-13762609D01*
X36448923Y-13750499D01*
X46852184Y-13750499D01*
X46901374Y-13763584D01*
X46937561Y-13799381D01*
X46951178Y-13848426D01*
X46938627Y-13897755D01*
X46903225Y-13934327D01*
X46896872Y-13938149D01*
X46766359Y-14061777D01*
X46665470Y-14210577D01*
X46598930Y-14377582D01*
X46569844Y-14554989D01*
X46579578Y-14734504D01*
X46627671Y-14907718D01*
X46627672Y-14907720D01*
X46627673Y-14907723D01*
X46711881Y-15066556D01*
X46755126Y-15117468D01*
X46828265Y-15203574D01*
X46971380Y-15312368D01*
X46971381Y-15312368D01*
X46971382Y-15312369D01*
X47134541Y-15387854D01*
X47222327Y-15407177D01*
X47310111Y-15426500D01*
X47310113Y-15426500D01*
X47444813Y-15426500D01*
X47444816Y-15426500D01*
X47578721Y-15411937D01*
X47749085Y-15354535D01*
X47903126Y-15261851D01*
X47903126Y-15261850D01*
X47903129Y-15261849D01*
X48033640Y-15138222D01*
X48033640Y-15138221D01*
X48033642Y-15138220D01*
X48134529Y-14989423D01*
X48201070Y-14822416D01*
X48230155Y-14645010D01*
X48220422Y-14465499D01*
X48204814Y-14409286D01*
X48172328Y-14292281D01*
X48172327Y-14292277D01*
X48088119Y-14133444D01*
X47971735Y-13996426D01*
X47890045Y-13934327D01*
X47882133Y-13928312D01*
X47847406Y-13878558D01*
X47848227Y-13817888D01*
X47884289Y-13769092D01*
X47942045Y-13750499D01*
X48936136Y-13750499D01*
X48936140Y-13750500D01*
X48955830Y-13750500D01*
X48997640Y-13750500D01*
X49002350Y-13750612D01*
X49029048Y-13751883D01*
X49399250Y-13769518D01*
X49408597Y-13770411D01*
X49799572Y-13826625D01*
X49808789Y-13828401D01*
X50192639Y-13921523D01*
X50201672Y-13924174D01*
X50574927Y-14053358D01*
X50583659Y-14056854D01*
X50942949Y-14220937D01*
X50951317Y-14225252D01*
X51293370Y-14422737D01*
X51301295Y-14427830D01*
X51623028Y-14656934D01*
X51630434Y-14662758D01*
X51928921Y-14921399D01*
X51935740Y-14927900D01*
X52208306Y-15213759D01*
X52214475Y-15220879D01*
X52458627Y-15531343D01*
X52464092Y-15539018D01*
X52677623Y-15871279D01*
X52682334Y-15879438D01*
X52863321Y-16230505D01*
X52867234Y-16239074D01*
X53014025Y-16605740D01*
X53017107Y-16614644D01*
X53128384Y-16993620D01*
X53130605Y-17002775D01*
X53187737Y-17299201D01*
X53203442Y-17380687D01*
X53205353Y-17390599D01*
X53206693Y-17399922D01*
X53208521Y-17419053D01*
X53244239Y-17793109D01*
X53244687Y-17802520D01*
X53244687Y-18197480D01*
X53244239Y-18206890D01*
X53242354Y-18226627D01*
X53206694Y-18600075D01*
X53205353Y-18609400D01*
X53130605Y-18997224D01*
X53128384Y-19006379D01*
X53017107Y-19385355D01*
X53014025Y-19394259D01*
X52867234Y-19760925D01*
X52863321Y-19769494D01*
X52682334Y-20120561D01*
X52677623Y-20128720D01*
X52464092Y-20460981D01*
X52458627Y-20468656D01*
X52214475Y-20779120D01*
X52208306Y-20786240D01*
X51935740Y-21072099D01*
X51928921Y-21078600D01*
X51630434Y-21337241D01*
X51623028Y-21343065D01*
X51301295Y-21572169D01*
X51293370Y-21577262D01*
X50951317Y-21774747D01*
X50942943Y-21779065D01*
X50583666Y-21943142D01*
X50574920Y-21946643D01*
X50201676Y-22075823D01*
X50192636Y-22078477D01*
X49808806Y-22171594D01*
X49799555Y-22173377D01*
X49408613Y-22229586D01*
X49399235Y-22230482D01*
X49002351Y-22249388D01*
X48997640Y-22249500D01*
X48955830Y-22249500D01*
X48955829Y-22249500D01*
X47947817Y-22249500D01*
X47898627Y-22236415D01*
X47862440Y-22200618D01*
X47848823Y-22151572D01*
X47861375Y-22102243D01*
X47896778Y-22065671D01*
X47900343Y-22063525D01*
X47903126Y-22061851D01*
X48033642Y-21938220D01*
X48134529Y-21789423D01*
X48201070Y-21622416D01*
X48230155Y-21445010D01*
X48220422Y-21265499D01*
X48172327Y-21092277D01*
X48088119Y-20933444D01*
X47971735Y-20796426D01*
X47971734Y-20796425D01*
X47828619Y-20687631D01*
X47696489Y-20626502D01*
X47665459Y-20612146D01*
X47665457Y-20612145D01*
X47665456Y-20612145D01*
X47489889Y-20573500D01*
X47489887Y-20573500D01*
X47355184Y-20573500D01*
X47322244Y-20577082D01*
X47221279Y-20588062D01*
X47050914Y-20645465D01*
X46896870Y-20738150D01*
X46766359Y-20861777D01*
X46665470Y-21010577D01*
X46598930Y-21177582D01*
X46569844Y-21354989D01*
X46579578Y-21534504D01*
X46627671Y-21707718D01*
X46627672Y-21707720D01*
X46627673Y-21707723D01*
X46711881Y-21866556D01*
X46828265Y-22003574D01*
X46904926Y-22061850D01*
X46917866Y-22071687D01*
X46952592Y-22121442D01*
X46951771Y-22182111D01*
X46915709Y-22230907D01*
X46857953Y-22249500D01*
X43402063Y-22249500D01*
X43348871Y-22233996D01*
X43312339Y-22192340D01*
X43303910Y-22137579D01*
X43305500Y-22125501D01*
X43305500Y-21557182D01*
X43305934Y-21549999D01*
X43305500Y-21542818D01*
X43305500Y-20949000D01*
X43298498Y-20895814D01*
X43298498Y-20895812D01*
X43281885Y-20833812D01*
X43261355Y-20784250D01*
X43228697Y-20741690D01*
X43183310Y-20696303D01*
X43140750Y-20663645D01*
X43091188Y-20643115D01*
X43055389Y-20633522D01*
X43029185Y-20626501D01*
X42976000Y-20619500D01*
X37299000Y-20619500D01*
X37245814Y-20626501D01*
X37183812Y-20643115D01*
X37134249Y-20663645D01*
X37091690Y-20696302D01*
X37046302Y-20741690D01*
X37013645Y-20784249D01*
X36993115Y-20833812D01*
X36976501Y-20895814D01*
X36969500Y-20949000D01*
X36969500Y-21542818D01*
X36969065Y-21549999D01*
X36969500Y-21557182D01*
X36969500Y-22125501D01*
X36971090Y-22137579D01*
X36962661Y-22192340D01*
X36926129Y-22233996D01*
X36872937Y-22249500D01*
X20147817Y-22249500D01*
X20098627Y-22236415D01*
X20062440Y-22200618D01*
X20048823Y-22151572D01*
X20061375Y-22102243D01*
X20096778Y-22065671D01*
X20100343Y-22063525D01*
X20103126Y-22061851D01*
X20233642Y-21938220D01*
X20334529Y-21789423D01*
X20401070Y-21622416D01*
X20430155Y-21445010D01*
X20420422Y-21265499D01*
X20372327Y-21092277D01*
X20288119Y-20933444D01*
X20171735Y-20796426D01*
X20171734Y-20796425D01*
X20028619Y-20687631D01*
X19896489Y-20626502D01*
X19865459Y-20612146D01*
X19865457Y-20612145D01*
X19865456Y-20612145D01*
X19689889Y-20573500D01*
X19689887Y-20573500D01*
X19555184Y-20573500D01*
X19522244Y-20577082D01*
X19421279Y-20588062D01*
X19250914Y-20645465D01*
X19096870Y-20738150D01*
X18966359Y-20861777D01*
X18865470Y-21010577D01*
X18798930Y-21177582D01*
X18769844Y-21354989D01*
X18779578Y-21534504D01*
X18827671Y-21707718D01*
X18827672Y-21707720D01*
X18827673Y-21707723D01*
X18911881Y-21866556D01*
X19028265Y-22003574D01*
X19104926Y-22061850D01*
X19117866Y-22071687D01*
X19152592Y-22121442D01*
X19151771Y-22182111D01*
X19115709Y-22230907D01*
X19057953Y-22249500D01*
X18002358Y-22249500D01*
X17997648Y-22249388D01*
X17600765Y-22230483D01*
X17591386Y-22229587D01*
X17200444Y-22173378D01*
X17191193Y-22171595D01*
X16807363Y-22078478D01*
X16798323Y-22075824D01*
X16425079Y-21946643D01*
X16416333Y-21943142D01*
X16057056Y-21779066D01*
X16048682Y-21774749D01*
X15706628Y-21577264D01*
X15698702Y-21572170D01*
X15376970Y-21343065D01*
X15369565Y-21337241D01*
X15071078Y-21078601D01*
X15064259Y-21072100D01*
X14837051Y-20833812D01*
X14791687Y-20786236D01*
X14785523Y-20779121D01*
X14785522Y-20779120D01*
X14541372Y-20468656D01*
X14535911Y-20460987D01*
X14322373Y-20128717D01*
X14317663Y-20120558D01*
X14261620Y-20011851D01*
X14251375Y-19954232D01*
X14275460Y-19900895D01*
X14325456Y-19870479D01*
X14383895Y-19873611D01*
X14430354Y-19909197D01*
X14493804Y-19998621D01*
X14733338Y-20266661D01*
X15001378Y-20506195D01*
X15161066Y-20619500D01*
X15294548Y-20714211D01*
X15609167Y-20888094D01*
X15941276Y-21025659D01*
X16286700Y-21125173D01*
X16595156Y-21177582D01*
X16641093Y-21185387D01*
X16910197Y-21200500D01*
X16910202Y-21200500D01*
X17089798Y-21200500D01*
X17089803Y-21200500D01*
X17314055Y-21187905D01*
X17358907Y-21185387D01*
X17713300Y-21125173D01*
X18058724Y-21025659D01*
X18390833Y-20888094D01*
X18705452Y-20714211D01*
X18998623Y-20506194D01*
X19266661Y-20266661D01*
X19506194Y-19998623D01*
X19714211Y-19705452D01*
X19888094Y-19390833D01*
X20025659Y-19058724D01*
X20125173Y-18713300D01*
X20185387Y-18358907D01*
X20205543Y-18000000D01*
X20185387Y-17641093D01*
X20125173Y-17286700D01*
X20025659Y-16941276D01*
X19888094Y-16609167D01*
X19714211Y-16294548D01*
X19701592Y-16276763D01*
X19506195Y-16001378D01*
X19415599Y-15900000D01*
X20094352Y-15900000D01*
X20114834Y-16042455D01*
X20153164Y-16126386D01*
X20174623Y-16173373D01*
X20225321Y-16231882D01*
X20243258Y-16262114D01*
X20249500Y-16296711D01*
X20249500Y-16353381D01*
X20247393Y-16373697D01*
X20244957Y-16385314D01*
X20248740Y-16415663D01*
X20249500Y-16427908D01*
X20249500Y-16429042D01*
X20252751Y-16448528D01*
X20253340Y-16452572D01*
X20260101Y-16506804D01*
X20261312Y-16510585D01*
X20287322Y-16558646D01*
X20289195Y-16562285D01*
X20313198Y-16611385D01*
X20315568Y-16614564D01*
X20355764Y-16651567D01*
X20358717Y-16654399D01*
X20969196Y-17264877D01*
X20982071Y-17280733D01*
X20988562Y-17290669D01*
X21012687Y-17309445D01*
X21021886Y-17317567D01*
X21022696Y-17318377D01*
X21038771Y-17329854D01*
X21042023Y-17332278D01*
X21080874Y-17362517D01*
X21080875Y-17362517D01*
X21085189Y-17365875D01*
X21088697Y-17367680D01*
X21093932Y-17369238D01*
X21093934Y-17369240D01*
X21133385Y-17380985D01*
X21141067Y-17383272D01*
X21144963Y-17384520D01*
X21162672Y-17390599D01*
X21191512Y-17400500D01*
X21191514Y-17400500D01*
X21196673Y-17402271D01*
X21200592Y-17402842D01*
X21206044Y-17402616D01*
X21206046Y-17402617D01*
X21255186Y-17400584D01*
X21259277Y-17400500D01*
X21350500Y-17400500D01*
X21400000Y-17413763D01*
X21436237Y-17450000D01*
X21449500Y-17499500D01*
X21449500Y-18019748D01*
X21453439Y-18039549D01*
X21461133Y-18078231D01*
X21505447Y-18144552D01*
X21528217Y-18159766D01*
X21571769Y-18188867D01*
X21630252Y-18200500D01*
X21907507Y-18200500D01*
X21954953Y-18212610D01*
X21990791Y-18245977D01*
X22006255Y-18292438D01*
X21997560Y-18340626D01*
X21989834Y-18357542D01*
X21969352Y-18500000D01*
X21989834Y-18642455D01*
X21989835Y-18642457D01*
X22049623Y-18773373D01*
X22115231Y-18849089D01*
X22143874Y-18882145D01*
X22264945Y-18959952D01*
X22264947Y-18959953D01*
X22403039Y-19000500D01*
X22546961Y-19000500D01*
X22685053Y-18959953D01*
X22806128Y-18882143D01*
X22900377Y-18773373D01*
X22960165Y-18642457D01*
X22977007Y-18525312D01*
X22988567Y-18499999D01*
X22977008Y-18474687D01*
X22960165Y-18357544D01*
X22960164Y-18357542D01*
X22900377Y-18226627D01*
X22858074Y-18177807D01*
X22837192Y-18138315D01*
X22835797Y-18093663D01*
X22846562Y-18039548D01*
X22850500Y-18019748D01*
X22850500Y-17480252D01*
X22838867Y-17421769D01*
X22838865Y-17421766D01*
X22838378Y-17419316D01*
X22838378Y-17380687D01*
X22840966Y-17367680D01*
X22850500Y-17319748D01*
X22850500Y-16780252D01*
X22838867Y-16721769D01*
X22813708Y-16684116D01*
X22794552Y-16655447D01*
X22728231Y-16611133D01*
X22704859Y-16606484D01*
X22669748Y-16599500D01*
X21630252Y-16599500D01*
X21601010Y-16605316D01*
X21571768Y-16611133D01*
X21489075Y-16666388D01*
X21488633Y-16665726D01*
X21466225Y-16684116D01*
X21409026Y-16689749D01*
X21358337Y-16662655D01*
X21017981Y-16322299D01*
X20992995Y-16280186D01*
X20991248Y-16231249D01*
X21013164Y-16187466D01*
X21025377Y-16173373D01*
X21059947Y-16097675D01*
X21096477Y-16055519D01*
X21150000Y-16039803D01*
X21203523Y-16055519D01*
X21240052Y-16097675D01*
X21274623Y-16173373D01*
X21368872Y-16282143D01*
X21368874Y-16282145D01*
X21480041Y-16353587D01*
X21489947Y-16359953D01*
X21628039Y-16400500D01*
X21771961Y-16400500D01*
X21910053Y-16359953D01*
X22031128Y-16282143D01*
X22031128Y-16282142D01*
X22039499Y-16276763D01*
X22062633Y-16259447D01*
X22103759Y-16250500D01*
X23013810Y-16250500D01*
X23051696Y-16258036D01*
X23083814Y-16279496D01*
X23295504Y-16491186D01*
X23316964Y-16523304D01*
X23324500Y-16561190D01*
X23324500Y-16671733D01*
X23314584Y-16704419D01*
X23311132Y-16721769D01*
X23311133Y-16721769D01*
X23299500Y-16780252D01*
X23299500Y-17319748D01*
X23302901Y-17336845D01*
X23311621Y-17380685D01*
X23311621Y-17419312D01*
X23299500Y-17480252D01*
X23299500Y-18019748D01*
X23314202Y-18093664D01*
X23312807Y-18138315D01*
X23291924Y-18177807D01*
X23249623Y-18226626D01*
X23189834Y-18357544D01*
X23172992Y-18474687D01*
X23161432Y-18499999D01*
X23172992Y-18525312D01*
X23189834Y-18642455D01*
X23189835Y-18642457D01*
X23249623Y-18773373D01*
X23315231Y-18849089D01*
X23343874Y-18882145D01*
X23464945Y-18959952D01*
X23464947Y-18959953D01*
X23603039Y-19000500D01*
X23746961Y-19000500D01*
X23885053Y-18959953D01*
X24006128Y-18882143D01*
X24100377Y-18773373D01*
X24160165Y-18642457D01*
X24180647Y-18500000D01*
X24166413Y-18401000D01*
X26669500Y-18401000D01*
X26676501Y-18454184D01*
X26689764Y-18503683D01*
X26710293Y-18553248D01*
X26723287Y-18570181D01*
X26742953Y-18595810D01*
X26779190Y-18632047D01*
X26821751Y-18664706D01*
X26871315Y-18685235D01*
X26920815Y-18698498D01*
X26974000Y-18705500D01*
X33476000Y-18705500D01*
X33529185Y-18698498D01*
X33578685Y-18685235D01*
X33628249Y-18664706D01*
X33670810Y-18632047D01*
X33707047Y-18595810D01*
X33739706Y-18553249D01*
X33760235Y-18503685D01*
X33773498Y-18454185D01*
X33780500Y-18401000D01*
X33780500Y-17882182D01*
X33780934Y-17874999D01*
X33780500Y-17867818D01*
X33780500Y-17299000D01*
X33773498Y-17245815D01*
X33760235Y-17196316D01*
X33739706Y-17146751D01*
X33739705Y-17146750D01*
X33707047Y-17104190D01*
X33670810Y-17067953D01*
X33628249Y-17035294D01*
X33628248Y-17035293D01*
X33578683Y-17014764D01*
X33529184Y-17001501D01*
X33476000Y-16994500D01*
X28535702Y-16994500D01*
X28486202Y-16981237D01*
X28449965Y-16945000D01*
X28436702Y-16895500D01*
X28436702Y-15117468D01*
X28429700Y-15064283D01*
X28416437Y-15014784D01*
X28405932Y-14989422D01*
X28395908Y-14965219D01*
X28363249Y-14922658D01*
X28327012Y-14886421D01*
X28284451Y-14853762D01*
X28284450Y-14853761D01*
X28234885Y-14833232D01*
X28185386Y-14819969D01*
X28132202Y-14812968D01*
X26974000Y-14812968D01*
X26920815Y-14819969D01*
X26871316Y-14833232D01*
X26821751Y-14853761D01*
X26779192Y-14886419D01*
X26742951Y-14922660D01*
X26710293Y-14965219D01*
X26689764Y-15014784D01*
X26676501Y-15064283D01*
X26669500Y-15117468D01*
X26669500Y-18401000D01*
X24166413Y-18401000D01*
X24160165Y-18357543D01*
X24160165Y-18357542D01*
X24152440Y-18340626D01*
X24143745Y-18292438D01*
X24159209Y-18245977D01*
X24195047Y-18212610D01*
X24242493Y-18200500D01*
X24519747Y-18200500D01*
X24519748Y-18200500D01*
X24578231Y-18188867D01*
X24644552Y-18144552D01*
X24688867Y-18078231D01*
X24700500Y-18019748D01*
X24700500Y-17480252D01*
X24688867Y-17421769D01*
X24688865Y-17421766D01*
X24688378Y-17419316D01*
X24688378Y-17380687D01*
X24690966Y-17367680D01*
X24700500Y-17319748D01*
X24700500Y-16780252D01*
X24688867Y-16721769D01*
X24663708Y-16684116D01*
X24644552Y-16655447D01*
X24578231Y-16611133D01*
X24554859Y-16606484D01*
X24519748Y-16599500D01*
X24519747Y-16599500D01*
X24124500Y-16599500D01*
X24075000Y-16586237D01*
X24038763Y-16550000D01*
X24025500Y-16500500D01*
X24025500Y-16421614D01*
X24027607Y-16401298D01*
X24027774Y-16400500D01*
X24030042Y-16389685D01*
X24026260Y-16359344D01*
X24025500Y-16347099D01*
X24025500Y-16345961D01*
X24022688Y-16329112D01*
X24022244Y-16326454D01*
X24021658Y-16322430D01*
X24021642Y-16322299D01*
X24015573Y-16273607D01*
X24015571Y-16273604D01*
X24014896Y-16268182D01*
X24013693Y-16264426D01*
X24010998Y-16259447D01*
X23987681Y-16216360D01*
X23985813Y-16212731D01*
X23966571Y-16173371D01*
X23964198Y-16168516D01*
X23964196Y-16168514D01*
X23961801Y-16163614D01*
X23959436Y-16160441D01*
X23948738Y-16150593D01*
X23919221Y-16123420D01*
X23916294Y-16120612D01*
X23480801Y-15685119D01*
X23467925Y-15669262D01*
X23461436Y-15659330D01*
X23437309Y-15640551D01*
X23428118Y-15632435D01*
X23427310Y-15631627D01*
X23411228Y-15620145D01*
X23407949Y-15617700D01*
X23397060Y-15609225D01*
X23369126Y-15587483D01*
X23369124Y-15587482D01*
X23364822Y-15584134D01*
X23361292Y-15582316D01*
X23308909Y-15566720D01*
X23305016Y-15565472D01*
X23253328Y-15547728D01*
X23249408Y-15547157D01*
X23199065Y-15549239D01*
X23194823Y-15549415D01*
X23190733Y-15549500D01*
X22103759Y-15549500D01*
X22062633Y-15540553D01*
X22039499Y-15523236D01*
X21910054Y-15440047D01*
X21771961Y-15399500D01*
X21628039Y-15399500D01*
X21489945Y-15440047D01*
X21368874Y-15517854D01*
X21274622Y-15626628D01*
X21240053Y-15702323D01*
X21203523Y-15744480D01*
X21150000Y-15760196D01*
X21096477Y-15744480D01*
X21059947Y-15702323D01*
X21027660Y-15631627D01*
X21025377Y-15626627D01*
X20931128Y-15517857D01*
X20931127Y-15517856D01*
X20931125Y-15517854D01*
X20810054Y-15440047D01*
X20671961Y-15399500D01*
X20528039Y-15399500D01*
X20389945Y-15440047D01*
X20268874Y-15517854D01*
X20174622Y-15626628D01*
X20114834Y-15757544D01*
X20094352Y-15900000D01*
X19415599Y-15900000D01*
X19266661Y-15733338D01*
X18998621Y-15493804D01*
X18705451Y-15285788D01*
X18438448Y-15138222D01*
X18390833Y-15111906D01*
X18188881Y-15028254D01*
X18058723Y-14974340D01*
X17713297Y-14874826D01*
X17358906Y-14814612D01*
X17089803Y-14799500D01*
X17089798Y-14799500D01*
X16910202Y-14799500D01*
X16910197Y-14799500D01*
X16641093Y-14814612D01*
X16286702Y-14874826D01*
X15941276Y-14974340D01*
X15609165Y-15111907D01*
X15294548Y-15285788D01*
X15001378Y-15493804D01*
X14733338Y-15733338D01*
X14493804Y-16001378D01*
X14430356Y-16090800D01*
X14383897Y-16126386D01*
X14325458Y-16129518D01*
X14275462Y-16099102D01*
X14251377Y-16045765D01*
X14261620Y-15988148D01*
X14317670Y-15879427D01*
X14322373Y-15871283D01*
X14358534Y-15815016D01*
X14535915Y-15539004D01*
X14541370Y-15531345D01*
X14785536Y-15220862D01*
X14791678Y-15213773D01*
X15064264Y-14927893D01*
X15071077Y-14921399D01*
X15369573Y-14662751D01*
X15376960Y-14656941D01*
X15698706Y-14427826D01*
X15706628Y-14422735D01*
X16048696Y-14225242D01*
X16057041Y-14220940D01*
X16416347Y-14056851D01*
X16425065Y-14053361D01*
X16798333Y-13924171D01*
X16807354Y-13921523D01*
X17191214Y-13828399D01*
X17200423Y-13826624D01*
X17591404Y-13770410D01*
X17600747Y-13769517D01*
X17972491Y-13751809D01*
X17997649Y-13750611D01*
X18002359Y-13750499D01*
X35313481Y-13750499D01*
X35360927Y-13762609D01*
G37*
%TD.AperFunction*%
%TD*%
%TA.AperFunction,Conductor*%
%TO.N,+5V*%
G36*
X28181702Y-15031731D02*
G01*
X28217939Y-15067968D01*
X28231202Y-15117468D01*
X28231202Y-17200000D01*
X33476000Y-17200000D01*
X33525500Y-17213263D01*
X33561737Y-17249500D01*
X33575000Y-17299000D01*
X33575000Y-18401000D01*
X33561737Y-18450500D01*
X33525500Y-18486737D01*
X33476000Y-18500000D01*
X26974000Y-18500000D01*
X26924500Y-18486737D01*
X26888263Y-18450500D01*
X26875000Y-18401000D01*
X26875000Y-15117468D01*
X26888263Y-15067968D01*
X26924500Y-15031731D01*
X26974000Y-15018468D01*
X28132202Y-15018468D01*
X28181702Y-15031731D01*
G37*
%TD.AperFunction*%
%TD*%
%TA.AperFunction,Conductor*%
%TO.N,VBUS*%
G36*
X43038000Y-20841613D02*
G01*
X43083387Y-20887000D01*
X43100000Y-20949000D01*
X43100000Y-22125500D01*
X43083387Y-22187500D01*
X43038000Y-22232887D01*
X42976000Y-22249500D01*
X37299000Y-22249500D01*
X37237000Y-22232887D01*
X37191613Y-22187500D01*
X37175000Y-22125500D01*
X37175000Y-20949000D01*
X37191613Y-20887000D01*
X37237000Y-20841613D01*
X37299000Y-20825000D01*
X42976000Y-20825000D01*
X43038000Y-20841613D01*
G37*
%TD.AperFunction*%
%TD*%
M02*
